%TF.GenerationSoftware,KiCad,Pcbnew,(5.1.9)-1*%
%TF.CreationDate,2021-04-13T13:52:40+02:00*%
%TF.ProjectId,Tasterplatine,54617374-6572-4706-9c61-74696e652e6b,rev?*%
%TF.SameCoordinates,Original*%
%TF.FileFunction,Legend,Top*%
%TF.FilePolarity,Positive*%
%FSLAX46Y46*%
G04 Gerber Fmt 4.6, Leading zero omitted, Abs format (unit mm)*
G04 Created by KiCad (PCBNEW (5.1.9)-1) date 2021-04-13 13:52:40*
%MOMM*%
%LPD*%
G01*
G04 APERTURE LIST*
%ADD10C,0.120000*%
%ADD11C,0.050000*%
%ADD12C,0.150000*%
G04 APERTURE END LIST*
D10*
X207518000Y-128778000D02*
X209296000Y-128778000D01*
X203200000Y-128778000D02*
X203200000Y-127508000D01*
X204978000Y-128778000D02*
X203200000Y-128778000D01*
X209296000Y-128778000D02*
X209296000Y-127508000D01*
X206502000Y-122936000D02*
X208500000Y-129500000D01*
X189992000Y-128778000D02*
X191770000Y-128778000D01*
X185674000Y-128778000D02*
X185674000Y-127508000D01*
X187452000Y-128778000D02*
X185674000Y-128778000D01*
X191770000Y-128778000D02*
X191770000Y-127508000D01*
X188976000Y-122936000D02*
X191000000Y-129000000D01*
X172720000Y-128778000D02*
X174498000Y-128778000D01*
X168402000Y-128778000D02*
X168402000Y-127508000D01*
X170180000Y-128778000D02*
X168402000Y-128778000D01*
X174498000Y-128778000D02*
X174498000Y-127508000D01*
X171704000Y-122936000D02*
X173500000Y-129500000D01*
X155194000Y-128778000D02*
X156972000Y-128778000D01*
X150876000Y-128778000D02*
X150876000Y-127508000D01*
X152654000Y-128778000D02*
X150876000Y-128778000D01*
X156972000Y-128778000D02*
X156972000Y-127508000D01*
X154178000Y-122936000D02*
X156000000Y-129500000D01*
X137668000Y-128778000D02*
X139446000Y-128778000D01*
X133350000Y-128778000D02*
X133350000Y-127508000D01*
X135128000Y-128778000D02*
X133350000Y-128778000D01*
X139446000Y-128778000D02*
X139446000Y-127508000D01*
X136652000Y-122936000D02*
X138500000Y-130000000D01*
X120396000Y-128778000D02*
X122174000Y-128778000D01*
X116078000Y-128778000D02*
X116078000Y-127508000D01*
X117856000Y-128778000D02*
X116078000Y-128778000D01*
X122174000Y-128778000D02*
X122174000Y-127508000D01*
X119380000Y-122936000D02*
X121000000Y-129500000D01*
X102870000Y-128778000D02*
X104648000Y-128778000D01*
X98552000Y-128778000D02*
X98552000Y-127508000D01*
X100330000Y-128778000D02*
X98552000Y-128778000D01*
X104648000Y-128778000D02*
X104648000Y-127508000D01*
X101854000Y-122936000D02*
X103500000Y-129286000D01*
X207010000Y-113538000D02*
X207010000Y-111252000D01*
X209042000Y-111252000D02*
X209042000Y-113538000D01*
X209042000Y-112522000D02*
X207010000Y-113538000D01*
X205740000Y-112522000D02*
X210058000Y-112522000D01*
X207010000Y-111252000D02*
X209042000Y-112522000D01*
X189484000Y-113284000D02*
X189484000Y-110998000D01*
X191516000Y-110998000D02*
X191516000Y-113284000D01*
X191516000Y-112268000D02*
X189484000Y-113284000D01*
X188214000Y-112268000D02*
X192532000Y-112268000D01*
X189484000Y-110998000D02*
X191516000Y-112268000D01*
X171958000Y-113284000D02*
X171958000Y-110998000D01*
X173990000Y-110998000D02*
X173990000Y-113284000D01*
X173990000Y-112268000D02*
X171958000Y-113284000D01*
X170688000Y-112268000D02*
X175006000Y-112268000D01*
X171958000Y-110998000D02*
X173990000Y-112268000D01*
X154686000Y-113284000D02*
X154686000Y-110998000D01*
X156718000Y-110998000D02*
X156718000Y-113284000D01*
X156718000Y-112268000D02*
X154686000Y-113284000D01*
X153416000Y-112268000D02*
X157734000Y-112268000D01*
X154686000Y-110998000D02*
X156718000Y-112268000D01*
X137414000Y-113284000D02*
X137414000Y-110998000D01*
X139446000Y-110998000D02*
X139446000Y-113284000D01*
X139446000Y-112268000D02*
X137414000Y-113284000D01*
X136144000Y-112268000D02*
X140462000Y-112268000D01*
X137414000Y-110998000D02*
X139446000Y-112268000D01*
X119634000Y-113284000D02*
X119634000Y-110998000D01*
X121666000Y-110998000D02*
X121666000Y-113284000D01*
X121666000Y-112268000D02*
X119634000Y-113284000D01*
X118364000Y-112268000D02*
X122682000Y-112268000D01*
X119634000Y-110998000D02*
X121666000Y-112268000D01*
X102362000Y-113284000D02*
X102362000Y-110998000D01*
X104394000Y-110998000D02*
X104394000Y-113284000D01*
X104394000Y-112268000D02*
X102362000Y-113284000D01*
X101092000Y-112268000D02*
X105410000Y-112268000D01*
X102362000Y-110998000D02*
X104394000Y-112268000D01*
X87122000Y-110998000D02*
X87122000Y-113284000D01*
X83820000Y-112268000D02*
X88138000Y-112268000D01*
X87122000Y-112268000D02*
X85090000Y-113284000D01*
X85090000Y-110998000D02*
X87122000Y-112268000D01*
X85090000Y-113284000D02*
X85090000Y-110998000D01*
X87122000Y-128778000D02*
X87122000Y-127508000D01*
X85344000Y-128778000D02*
X87122000Y-128778000D01*
X81026000Y-128778000D02*
X81026000Y-127508000D01*
X82804000Y-128778000D02*
X81026000Y-128778000D01*
X84328000Y-122936000D02*
X86000000Y-129286000D01*
%TO.C,U8*%
X202692000Y-57658000D02*
X203962000Y-56388000D01*
X202692000Y-55118000D02*
X202692000Y-57658000D01*
X203962000Y-56388000D02*
X202692000Y-55118000D01*
X203962000Y-57658000D02*
X203962000Y-56388000D01*
X203962000Y-55118000D02*
X203962000Y-57658000D01*
X201422000Y-56388000D02*
X205232000Y-56388000D01*
X207832000Y-69088000D02*
X203962000Y-64008000D01*
X200152000Y-64008000D02*
X207772000Y-64008000D01*
X197612000Y-60198000D02*
X210312000Y-60198000D01*
X197612000Y-72898000D02*
X197612000Y-55118000D01*
X210312000Y-72898000D02*
X197612000Y-72898000D01*
X210312000Y-55118000D02*
X210312000Y-72898000D01*
X197612000Y-55118000D02*
X210312000Y-55118000D01*
%TO.C,U7*%
X185928000Y-57658000D02*
X187198000Y-56388000D01*
X185928000Y-55118000D02*
X185928000Y-57658000D01*
X187198000Y-56388000D02*
X185928000Y-55118000D01*
X187198000Y-57658000D02*
X187198000Y-56388000D01*
X187198000Y-55118000D02*
X187198000Y-57658000D01*
X184658000Y-56388000D02*
X188468000Y-56388000D01*
X191068000Y-69088000D02*
X187198000Y-64008000D01*
X183388000Y-64008000D02*
X191008000Y-64008000D01*
X180848000Y-60198000D02*
X193548000Y-60198000D01*
X180848000Y-72898000D02*
X180848000Y-55118000D01*
X193548000Y-72898000D02*
X180848000Y-72898000D01*
X193548000Y-55118000D02*
X193548000Y-72898000D01*
X180848000Y-55118000D02*
X193548000Y-55118000D01*
%TO.C,U6*%
X169164000Y-57658000D02*
X170434000Y-56388000D01*
X169164000Y-55118000D02*
X169164000Y-57658000D01*
X170434000Y-56388000D02*
X169164000Y-55118000D01*
X170434000Y-57658000D02*
X170434000Y-56388000D01*
X170434000Y-55118000D02*
X170434000Y-57658000D01*
X167894000Y-56388000D02*
X171704000Y-56388000D01*
X174304000Y-69088000D02*
X170434000Y-64008000D01*
X166624000Y-64008000D02*
X174244000Y-64008000D01*
X164084000Y-60198000D02*
X176784000Y-60198000D01*
X164084000Y-72898000D02*
X164084000Y-55118000D01*
X176784000Y-72898000D02*
X164084000Y-72898000D01*
X176784000Y-55118000D02*
X176784000Y-72898000D01*
X164084000Y-55118000D02*
X176784000Y-55118000D01*
%TO.C,U5*%
X152400000Y-57658000D02*
X153670000Y-56388000D01*
X152400000Y-55118000D02*
X152400000Y-57658000D01*
X153670000Y-56388000D02*
X152400000Y-55118000D01*
X153670000Y-57658000D02*
X153670000Y-56388000D01*
X153670000Y-55118000D02*
X153670000Y-57658000D01*
X151130000Y-56388000D02*
X154940000Y-56388000D01*
X157540000Y-69088000D02*
X153670000Y-64008000D01*
X149860000Y-64008000D02*
X157480000Y-64008000D01*
X147320000Y-60198000D02*
X160020000Y-60198000D01*
X147320000Y-72898000D02*
X147320000Y-55118000D01*
X160020000Y-72898000D02*
X147320000Y-72898000D01*
X160020000Y-55118000D02*
X160020000Y-72898000D01*
X147320000Y-55118000D02*
X160020000Y-55118000D01*
%TO.C,U4*%
X135636000Y-57658000D02*
X136906000Y-56388000D01*
X135636000Y-55118000D02*
X135636000Y-57658000D01*
X136906000Y-56388000D02*
X135636000Y-55118000D01*
X136906000Y-57658000D02*
X136906000Y-56388000D01*
X136906000Y-55118000D02*
X136906000Y-57658000D01*
X134366000Y-56388000D02*
X138176000Y-56388000D01*
X140776000Y-69088000D02*
X136906000Y-64008000D01*
X133096000Y-64008000D02*
X140716000Y-64008000D01*
X130556000Y-60198000D02*
X143256000Y-60198000D01*
X130556000Y-72898000D02*
X130556000Y-55118000D01*
X143256000Y-72898000D02*
X130556000Y-72898000D01*
X143256000Y-55118000D02*
X143256000Y-72898000D01*
X130556000Y-55118000D02*
X143256000Y-55118000D01*
%TO.C,U3*%
X118872000Y-57658000D02*
X120142000Y-56388000D01*
X118872000Y-55118000D02*
X118872000Y-57658000D01*
X120142000Y-56388000D02*
X118872000Y-55118000D01*
X120142000Y-57658000D02*
X120142000Y-56388000D01*
X120142000Y-55118000D02*
X120142000Y-57658000D01*
X117602000Y-56388000D02*
X121412000Y-56388000D01*
X124012000Y-69088000D02*
X120142000Y-64008000D01*
X116332000Y-64008000D02*
X123952000Y-64008000D01*
X113792000Y-60198000D02*
X126492000Y-60198000D01*
X113792000Y-72898000D02*
X113792000Y-55118000D01*
X126492000Y-72898000D02*
X113792000Y-72898000D01*
X126492000Y-55118000D02*
X126492000Y-72898000D01*
X113792000Y-55118000D02*
X126492000Y-55118000D01*
%TO.C,U2*%
X102108000Y-57658000D02*
X103378000Y-56388000D01*
X102108000Y-55118000D02*
X102108000Y-57658000D01*
X103378000Y-56388000D02*
X102108000Y-55118000D01*
X103378000Y-57658000D02*
X103378000Y-56388000D01*
X103378000Y-55118000D02*
X103378000Y-57658000D01*
X100838000Y-56388000D02*
X104648000Y-56388000D01*
X107248000Y-69088000D02*
X103378000Y-64008000D01*
X99568000Y-64008000D02*
X107188000Y-64008000D01*
X97028000Y-60198000D02*
X109728000Y-60198000D01*
X97028000Y-72898000D02*
X97028000Y-55118000D01*
X109728000Y-72898000D02*
X97028000Y-72898000D01*
X109728000Y-55118000D02*
X109728000Y-72898000D01*
X97028000Y-55118000D02*
X109728000Y-55118000D01*
%TO.C,U1*%
X85344000Y-57658000D02*
X86614000Y-56388000D01*
X85344000Y-55118000D02*
X85344000Y-57658000D01*
X86614000Y-56388000D02*
X85344000Y-55118000D01*
X86614000Y-57658000D02*
X86614000Y-56388000D01*
X86614000Y-55118000D02*
X86614000Y-57658000D01*
X84074000Y-56388000D02*
X87884000Y-56388000D01*
X90484000Y-69088000D02*
X86614000Y-64008000D01*
X82804000Y-64008000D02*
X90424000Y-64008000D01*
X80264000Y-60198000D02*
X92964000Y-60198000D01*
X80264000Y-72898000D02*
X80264000Y-55118000D01*
X92964000Y-72898000D02*
X80264000Y-72898000D01*
X92964000Y-55118000D02*
X92964000Y-72898000D01*
X80264000Y-55118000D02*
X92964000Y-55118000D01*
%TO.C,G\u002A\u002A\u002A*%
X152300000Y-50275000D02*
X151525000Y-47825000D01*
D11*
X143600000Y-46150000D02*
X142125000Y-47875000D01*
D10*
X149375000Y-49800000D02*
X150125000Y-49800000D01*
X146200000Y-48750000D02*
X145550000Y-48750000D01*
X148900000Y-47800000D02*
X149350000Y-47800000D01*
X140900000Y-49350000D02*
X140900000Y-48650000D01*
X150125000Y-50250000D02*
X148875000Y-50250000D01*
X148875000Y-50250000D02*
X148900000Y-47800000D01*
X143550000Y-48250000D02*
X143550000Y-48700000D01*
X145100000Y-47800000D02*
X145050000Y-50250000D01*
X145550000Y-48750000D02*
X145550000Y-48300000D01*
X145050000Y-50250000D02*
X145150000Y-50250000D01*
X151050000Y-49675000D02*
X151650000Y-49675000D01*
X150800000Y-50275000D02*
X150300000Y-50275000D01*
X149350000Y-47800000D02*
X149375000Y-49800000D01*
X142600000Y-48650000D02*
X142600000Y-49350000D01*
X146200000Y-49200000D02*
X146200000Y-48750000D01*
X151525000Y-47825000D02*
X151200000Y-47825000D01*
X151900000Y-50275000D02*
X152300000Y-50275000D01*
X153125000Y-49725000D02*
X153575000Y-49725000D01*
D11*
X152550000Y-44350000D02*
X150750000Y-44400000D01*
D10*
X147300000Y-50250000D02*
X147300000Y-49300000D01*
D11*
X151325000Y-46450000D02*
X149650000Y-46550000D01*
X145925000Y-45000000D02*
X149400000Y-43375000D01*
X143600000Y-46150000D02*
X137950000Y-49000000D01*
X139275000Y-49475000D02*
X140100000Y-49125000D01*
D10*
X143550000Y-48700000D02*
X143850000Y-48700000D01*
X146400000Y-48300000D02*
X146400000Y-47800000D01*
X143550000Y-48200000D02*
X143800000Y-48200000D01*
D11*
X145175000Y-43575000D02*
X145925000Y-45000000D01*
D10*
X145550000Y-49200000D02*
X146200000Y-49200000D01*
X147450000Y-49300000D02*
X148200000Y-50250000D01*
X151200000Y-47825000D02*
X150300000Y-50275000D01*
X151075000Y-49275000D02*
X151575000Y-49275000D01*
X146850000Y-50250000D02*
X147300000Y-50250000D01*
X146400000Y-47800000D02*
X145100000Y-47800000D01*
X151650000Y-49675000D02*
X151900000Y-50275000D01*
X145550000Y-49750000D02*
X145550000Y-49200000D01*
X148600000Y-50250000D02*
X148700000Y-50250000D01*
D11*
X148300000Y-45000000D02*
X148875000Y-46500000D01*
D10*
X151350000Y-48525000D02*
X151075000Y-49275000D01*
X152625000Y-47825000D02*
X152575000Y-50275000D01*
D11*
X149425000Y-43775000D02*
X148300000Y-45000000D01*
D10*
X145550000Y-48300000D02*
X146400000Y-48300000D01*
X150125000Y-49800000D02*
X150125000Y-50250000D01*
D11*
X152900000Y-45525000D02*
X152550000Y-44350000D01*
D10*
X151575000Y-49275000D02*
X151350000Y-48525000D01*
X153125000Y-48275000D02*
X153125000Y-48725000D01*
D11*
X142875000Y-44575000D02*
X143600000Y-46150000D01*
D10*
X141400000Y-48650000D02*
X141400000Y-49350000D01*
D11*
X141450000Y-48500000D02*
X141775000Y-48900000D01*
D10*
X153125001Y-49220050D02*
X153525001Y-49220050D01*
X153525000Y-47838605D02*
X152625000Y-47825000D01*
X146400000Y-50250000D02*
X146400000Y-49750000D01*
D11*
X141850000Y-44825000D02*
X143600000Y-46150000D01*
D10*
X142100000Y-48650000D02*
X142100000Y-49300000D01*
X143550001Y-49195050D02*
X143950001Y-49195050D01*
X143950000Y-47813605D02*
X143050000Y-47800000D01*
X147350000Y-48800000D02*
X147850000Y-48800000D01*
D11*
X150625000Y-45875000D02*
X151325000Y-46450000D01*
D10*
X147300000Y-49300000D02*
X147450000Y-49300000D01*
X143000000Y-50250000D02*
X144200000Y-50250000D01*
D11*
X153850000Y-46400000D02*
X154850000Y-46250000D01*
X146700000Y-47450000D02*
X145725000Y-47800000D01*
D10*
X145150000Y-50250000D02*
X146400000Y-50250000D01*
X148200000Y-50250000D02*
X148600000Y-50250000D01*
X146400000Y-49750000D02*
X145550000Y-49750000D01*
D11*
X150750000Y-44400000D02*
X152900000Y-45525000D01*
D10*
X153125000Y-49225000D02*
X153125000Y-49725000D01*
D11*
X140350000Y-49525000D02*
X140925000Y-48725000D01*
D10*
X147350000Y-48250000D02*
X147350000Y-48800000D01*
D11*
X142300000Y-47975000D02*
X149400000Y-43375000D01*
X141775000Y-48900000D02*
X141400000Y-49075000D01*
X149400000Y-43375000D02*
X149475000Y-46100000D01*
X149625000Y-46550000D02*
X150625000Y-45875000D01*
X140900000Y-49250000D02*
X140350000Y-49525000D01*
D10*
X153125000Y-48225000D02*
X153375000Y-48225000D01*
X152575000Y-50275000D02*
X153775000Y-50275000D01*
D11*
X145925000Y-45000000D02*
X143600000Y-46150000D01*
D10*
X147958731Y-47794594D02*
X146850000Y-47800000D01*
X153125000Y-48725000D02*
X153425000Y-48725000D01*
X148700000Y-50250000D02*
X148000000Y-49300000D01*
X150800000Y-50275000D02*
X151050000Y-49675000D01*
D11*
X141850000Y-44825000D02*
X142875000Y-44575000D01*
D10*
X143050000Y-47800000D02*
X143000000Y-50250000D01*
D11*
X146300000Y-47175000D02*
X146700000Y-47450000D01*
D10*
X143550000Y-49700000D02*
X144000000Y-49700000D01*
D11*
X137950000Y-49000000D02*
X141850000Y-44825000D01*
X147850000Y-47225000D02*
X146175000Y-47000000D01*
X145525000Y-47775000D02*
X146300000Y-47175000D01*
X140850000Y-48525000D02*
X140625000Y-49150000D01*
X137950000Y-49000000D02*
X139275000Y-49475000D01*
D10*
X146850000Y-47800000D02*
X146850000Y-50250000D01*
X147800000Y-48250000D02*
X147350000Y-48250000D01*
D11*
X137950000Y-49000000D02*
X140850000Y-48525000D01*
X145175000Y-43575000D02*
X142975000Y-44750000D01*
X146175000Y-47000000D02*
X144350000Y-47900000D01*
X140625000Y-49150000D02*
X137950000Y-49000000D01*
X142975000Y-44750000D02*
X144550000Y-45650000D01*
X154850000Y-46250000D02*
X154275000Y-46725000D01*
D10*
X143550000Y-49200000D02*
X143550000Y-49700000D01*
D11*
X154275000Y-46725000D02*
X153850000Y-46400000D01*
X149475000Y-46100000D02*
X147850000Y-47225000D01*
D10*
X140900000Y-48650000D02*
G75*
G02*
X142600000Y-48650000I850000J0D01*
G01*
X147958731Y-47794594D02*
G75*
G02*
X147974999Y-49249999I-233731J-730406D01*
G01*
X142100000Y-49350000D02*
G75*
G02*
X141400000Y-49350000I-350000J0D01*
G01*
X153525000Y-47838605D02*
G75*
G02*
X153974999Y-48924999I0J-636395D01*
G01*
X141400000Y-48650000D02*
G75*
G02*
X142100000Y-48650000I350000J0D01*
G01*
X143789366Y-48207464D02*
G75*
G02*
X143850000Y-48700000I60634J-242536D01*
G01*
X144376256Y-48941064D02*
G75*
G02*
X144199999Y-50249999I-426256J-608936D01*
G01*
X153525001Y-49220050D02*
G75*
G02*
X153574999Y-49724999I-1J-254950D01*
G01*
X142600000Y-49350000D02*
G75*
G02*
X140900000Y-49350000I-850000J0D01*
G01*
X147850000Y-48250001D02*
G75*
G02*
X147849999Y-48799999I-125000J-274999D01*
G01*
X143950000Y-47813605D02*
G75*
G02*
X144399999Y-48899999I0J-636395D01*
G01*
X143950001Y-49195050D02*
G75*
G02*
X143999999Y-49699999I-1J-254950D01*
G01*
X153364366Y-48232464D02*
G75*
G02*
X153425000Y-48725000I60634J-242536D01*
G01*
X153951256Y-48966064D02*
G75*
G02*
X153774999Y-50274999I-426256J-608936D01*
G01*
%TO.C,J1*%
X80288000Y-106450000D02*
X88138000Y-106470000D01*
X88138000Y-110690000D02*
X88138000Y-105459600D01*
X80288000Y-110680400D02*
X88138000Y-110690000D01*
X80288000Y-110680400D02*
X80262600Y-105450000D01*
X80288000Y-105450000D02*
X88138000Y-105460000D01*
%TO.C,J2*%
X80288000Y-117626000D02*
X88138000Y-117646000D01*
X88138000Y-121866000D02*
X88138000Y-116635600D01*
X80288000Y-121856400D02*
X88138000Y-121866000D01*
X80288000Y-121856400D02*
X80262600Y-116626000D01*
X80288000Y-116626000D02*
X88138000Y-116636000D01*
%TO.C,J3*%
X97741428Y-105450000D02*
X105591428Y-105460000D01*
X97741428Y-110680400D02*
X97716028Y-105450000D01*
X97741428Y-110680400D02*
X105591428Y-110690000D01*
X105591428Y-110690000D02*
X105591428Y-105459600D01*
X97741428Y-106450000D02*
X105591428Y-106470000D01*
%TO.C,J4*%
X97741428Y-116626000D02*
X105591428Y-116636000D01*
X97741428Y-121856400D02*
X97716028Y-116626000D01*
X97741428Y-121856400D02*
X105591428Y-121866000D01*
X105591428Y-121866000D02*
X105591428Y-116635600D01*
X97741428Y-117626000D02*
X105591428Y-117646000D01*
%TO.C,J5*%
X115194856Y-105450000D02*
X123044856Y-105460000D01*
X115194856Y-110680400D02*
X115169456Y-105450000D01*
X115194856Y-110680400D02*
X123044856Y-110690000D01*
X123044856Y-110690000D02*
X123044856Y-105459600D01*
X115194856Y-106450000D02*
X123044856Y-106470000D01*
%TO.C,J6*%
X115194856Y-117626000D02*
X123044856Y-117646000D01*
X123044856Y-121866000D02*
X123044856Y-116635600D01*
X115194856Y-121856400D02*
X123044856Y-121866000D01*
X115194856Y-121856400D02*
X115169456Y-116626000D01*
X115194856Y-116626000D02*
X123044856Y-116636000D01*
%TO.C,J7*%
X132648284Y-106450000D02*
X140498284Y-106470000D01*
X140498284Y-110690000D02*
X140498284Y-105459600D01*
X132648284Y-110680400D02*
X140498284Y-110690000D01*
X132648284Y-110680400D02*
X132622884Y-105450000D01*
X132648284Y-105450000D02*
X140498284Y-105460000D01*
%TO.C,J8*%
X132648284Y-116626000D02*
X140498284Y-116636000D01*
X132648284Y-121856400D02*
X132622884Y-116626000D01*
X132648284Y-121856400D02*
X140498284Y-121866000D01*
X140498284Y-121866000D02*
X140498284Y-116635600D01*
X132648284Y-117626000D02*
X140498284Y-117646000D01*
%TO.C,J9*%
X150101712Y-105450000D02*
X157951712Y-105460000D01*
X150101712Y-110680400D02*
X150076312Y-105450000D01*
X150101712Y-110680400D02*
X157951712Y-110690000D01*
X157951712Y-110690000D02*
X157951712Y-105459600D01*
X150101712Y-106450000D02*
X157951712Y-106470000D01*
%TO.C,J10*%
X150101712Y-117626000D02*
X157951712Y-117646000D01*
X157951712Y-121866000D02*
X157951712Y-116635600D01*
X150101712Y-121856400D02*
X157951712Y-121866000D01*
X150101712Y-121856400D02*
X150076312Y-116626000D01*
X150101712Y-116626000D02*
X157951712Y-116636000D01*
%TO.C,J11*%
X167555140Y-106450000D02*
X175405140Y-106470000D01*
X175405140Y-110690000D02*
X175405140Y-105459600D01*
X167555140Y-110680400D02*
X175405140Y-110690000D01*
X167555140Y-110680400D02*
X167529740Y-105450000D01*
X167555140Y-105450000D02*
X175405140Y-105460000D01*
%TO.C,J12*%
X167555140Y-116626000D02*
X175405140Y-116636000D01*
X167555140Y-121856400D02*
X167529740Y-116626000D01*
X167555140Y-121856400D02*
X175405140Y-121866000D01*
X175405140Y-121866000D02*
X175405140Y-116635600D01*
X167555140Y-117626000D02*
X175405140Y-117646000D01*
%TO.C,J13*%
X185008568Y-105450000D02*
X192858568Y-105460000D01*
X185008568Y-110680400D02*
X184983168Y-105450000D01*
X185008568Y-110680400D02*
X192858568Y-110690000D01*
X192858568Y-110690000D02*
X192858568Y-105459600D01*
X185008568Y-106450000D02*
X192858568Y-106470000D01*
%TO.C,J14*%
X185008568Y-117626000D02*
X192858568Y-117646000D01*
X192858568Y-121866000D02*
X192858568Y-116635600D01*
X185008568Y-121856400D02*
X192858568Y-121866000D01*
X185008568Y-121856400D02*
X184983168Y-116626000D01*
X185008568Y-116626000D02*
X192858568Y-116636000D01*
%TO.C,J15*%
X202462000Y-106450000D02*
X210312000Y-106470000D01*
X210312000Y-110690000D02*
X210312000Y-105459600D01*
X202462000Y-110680400D02*
X210312000Y-110690000D01*
X202462000Y-110680400D02*
X202436600Y-105450000D01*
X202462000Y-105450000D02*
X210312000Y-105460000D01*
%TO.C,J16*%
X202462000Y-116626000D02*
X210312000Y-116636000D01*
X202462000Y-121856400D02*
X202436600Y-116626000D01*
X202462000Y-121856400D02*
X210312000Y-121866000D01*
X210312000Y-121866000D02*
X210312000Y-116635600D01*
X202462000Y-117626000D02*
X210312000Y-117646000D01*
%TO.C,R1*%
X82154000Y-94732000D02*
X82634000Y-94732000D01*
X82154000Y-84592000D02*
X82154000Y-94732000D01*
X82634000Y-84592000D02*
X82154000Y-84592000D01*
X85994000Y-94732000D02*
X85514000Y-94732000D01*
X85994000Y-84592000D02*
X85994000Y-94732000D01*
X85514000Y-84592000D02*
X85994000Y-84592000D01*
%TO.C,R2*%
X99643714Y-94732000D02*
X100123714Y-94732000D01*
X99643714Y-84592000D02*
X99643714Y-94732000D01*
X100123714Y-84592000D02*
X99643714Y-84592000D01*
X103483714Y-94732000D02*
X103003714Y-94732000D01*
X103483714Y-84592000D02*
X103483714Y-94732000D01*
X103003714Y-84592000D02*
X103483714Y-84592000D01*
%TO.C,R3*%
X120493428Y-84592000D02*
X120973428Y-84592000D01*
X120973428Y-84592000D02*
X120973428Y-94732000D01*
X120973428Y-94732000D02*
X120493428Y-94732000D01*
X117613428Y-84592000D02*
X117133428Y-84592000D01*
X117133428Y-84592000D02*
X117133428Y-94732000D01*
X117133428Y-94732000D02*
X117613428Y-94732000D01*
%TO.C,R4*%
X137983142Y-84592000D02*
X138463142Y-84592000D01*
X138463142Y-84592000D02*
X138463142Y-94732000D01*
X138463142Y-94732000D02*
X137983142Y-94732000D01*
X135103142Y-84592000D02*
X134623142Y-84592000D01*
X134623142Y-84592000D02*
X134623142Y-94732000D01*
X134623142Y-94732000D02*
X135103142Y-94732000D01*
%TO.C,R5*%
X152112856Y-94732000D02*
X152592856Y-94732000D01*
X152112856Y-84592000D02*
X152112856Y-94732000D01*
X152592856Y-84592000D02*
X152112856Y-84592000D01*
X155952856Y-94732000D02*
X155472856Y-94732000D01*
X155952856Y-84592000D02*
X155952856Y-94732000D01*
X155472856Y-84592000D02*
X155952856Y-84592000D01*
%TO.C,R6*%
X169602570Y-94732000D02*
X170082570Y-94732000D01*
X169602570Y-84592000D02*
X169602570Y-94732000D01*
X170082570Y-84592000D02*
X169602570Y-84592000D01*
X173442570Y-94732000D02*
X172962570Y-94732000D01*
X173442570Y-84592000D02*
X173442570Y-94732000D01*
X172962570Y-84592000D02*
X173442570Y-84592000D01*
%TO.C,R7*%
X190452284Y-84592000D02*
X190932284Y-84592000D01*
X190932284Y-84592000D02*
X190932284Y-94732000D01*
X190932284Y-94732000D02*
X190452284Y-94732000D01*
X187572284Y-84592000D02*
X187092284Y-84592000D01*
X187092284Y-84592000D02*
X187092284Y-94732000D01*
X187092284Y-94732000D02*
X187572284Y-94732000D01*
%TO.C,R8*%
X207942000Y-84846000D02*
X208422000Y-84846000D01*
X208422000Y-84846000D02*
X208422000Y-94986000D01*
X208422000Y-94986000D02*
X207942000Y-94986000D01*
X205062000Y-84846000D02*
X204582000Y-84846000D01*
X204582000Y-84846000D02*
X204582000Y-94986000D01*
X204582000Y-94986000D02*
X205062000Y-94986000D01*
%TO.C,U8*%
D12*
X203200095Y-53300380D02*
X203200095Y-54109904D01*
X203247714Y-54205142D01*
X203295333Y-54252761D01*
X203390571Y-54300380D01*
X203581047Y-54300380D01*
X203676285Y-54252761D01*
X203723904Y-54205142D01*
X203771523Y-54109904D01*
X203771523Y-53300380D01*
X204390571Y-53728952D02*
X204295333Y-53681333D01*
X204247714Y-53633714D01*
X204200095Y-53538476D01*
X204200095Y-53490857D01*
X204247714Y-53395619D01*
X204295333Y-53348000D01*
X204390571Y-53300380D01*
X204581047Y-53300380D01*
X204676285Y-53348000D01*
X204723904Y-53395619D01*
X204771523Y-53490857D01*
X204771523Y-53538476D01*
X204723904Y-53633714D01*
X204676285Y-53681333D01*
X204581047Y-53728952D01*
X204390571Y-53728952D01*
X204295333Y-53776571D01*
X204247714Y-53824190D01*
X204200095Y-53919428D01*
X204200095Y-54109904D01*
X204247714Y-54205142D01*
X204295333Y-54252761D01*
X204390571Y-54300380D01*
X204581047Y-54300380D01*
X204676285Y-54252761D01*
X204723904Y-54205142D01*
X204771523Y-54109904D01*
X204771523Y-53919428D01*
X204723904Y-53824190D01*
X204676285Y-53776571D01*
X204581047Y-53728952D01*
%TO.C,U7*%
X186436095Y-53300380D02*
X186436095Y-54109904D01*
X186483714Y-54205142D01*
X186531333Y-54252761D01*
X186626571Y-54300380D01*
X186817047Y-54300380D01*
X186912285Y-54252761D01*
X186959904Y-54205142D01*
X187007523Y-54109904D01*
X187007523Y-53300380D01*
X187388476Y-53300380D02*
X188055142Y-53300380D01*
X187626571Y-54300380D01*
%TO.C,U6*%
X169672095Y-53300380D02*
X169672095Y-54109904D01*
X169719714Y-54205142D01*
X169767333Y-54252761D01*
X169862571Y-54300380D01*
X170053047Y-54300380D01*
X170148285Y-54252761D01*
X170195904Y-54205142D01*
X170243523Y-54109904D01*
X170243523Y-53300380D01*
X171148285Y-53300380D02*
X170957809Y-53300380D01*
X170862571Y-53348000D01*
X170814952Y-53395619D01*
X170719714Y-53538476D01*
X170672095Y-53728952D01*
X170672095Y-54109904D01*
X170719714Y-54205142D01*
X170767333Y-54252761D01*
X170862571Y-54300380D01*
X171053047Y-54300380D01*
X171148285Y-54252761D01*
X171195904Y-54205142D01*
X171243523Y-54109904D01*
X171243523Y-53871809D01*
X171195904Y-53776571D01*
X171148285Y-53728952D01*
X171053047Y-53681333D01*
X170862571Y-53681333D01*
X170767333Y-53728952D01*
X170719714Y-53776571D01*
X170672095Y-53871809D01*
%TO.C,U5*%
X152908095Y-53300380D02*
X152908095Y-54109904D01*
X152955714Y-54205142D01*
X153003333Y-54252761D01*
X153098571Y-54300380D01*
X153289047Y-54300380D01*
X153384285Y-54252761D01*
X153431904Y-54205142D01*
X153479523Y-54109904D01*
X153479523Y-53300380D01*
X154431904Y-53300380D02*
X153955714Y-53300380D01*
X153908095Y-53776571D01*
X153955714Y-53728952D01*
X154050952Y-53681333D01*
X154289047Y-53681333D01*
X154384285Y-53728952D01*
X154431904Y-53776571D01*
X154479523Y-53871809D01*
X154479523Y-54109904D01*
X154431904Y-54205142D01*
X154384285Y-54252761D01*
X154289047Y-54300380D01*
X154050952Y-54300380D01*
X153955714Y-54252761D01*
X153908095Y-54205142D01*
%TO.C,U4*%
X136144095Y-53300380D02*
X136144095Y-54109904D01*
X136191714Y-54205142D01*
X136239333Y-54252761D01*
X136334571Y-54300380D01*
X136525047Y-54300380D01*
X136620285Y-54252761D01*
X136667904Y-54205142D01*
X136715523Y-54109904D01*
X136715523Y-53300380D01*
X137620285Y-53633714D02*
X137620285Y-54300380D01*
X137382190Y-53252761D02*
X137144095Y-53967047D01*
X137763142Y-53967047D01*
%TO.C,U3*%
X119380095Y-53300380D02*
X119380095Y-54109904D01*
X119427714Y-54205142D01*
X119475333Y-54252761D01*
X119570571Y-54300380D01*
X119761047Y-54300380D01*
X119856285Y-54252761D01*
X119903904Y-54205142D01*
X119951523Y-54109904D01*
X119951523Y-53300380D01*
X120332476Y-53300380D02*
X120951523Y-53300380D01*
X120618190Y-53681333D01*
X120761047Y-53681333D01*
X120856285Y-53728952D01*
X120903904Y-53776571D01*
X120951523Y-53871809D01*
X120951523Y-54109904D01*
X120903904Y-54205142D01*
X120856285Y-54252761D01*
X120761047Y-54300380D01*
X120475333Y-54300380D01*
X120380095Y-54252761D01*
X120332476Y-54205142D01*
%TO.C,U2*%
X102616095Y-53300380D02*
X102616095Y-54109904D01*
X102663714Y-54205142D01*
X102711333Y-54252761D01*
X102806571Y-54300380D01*
X102997047Y-54300380D01*
X103092285Y-54252761D01*
X103139904Y-54205142D01*
X103187523Y-54109904D01*
X103187523Y-53300380D01*
X103616095Y-53395619D02*
X103663714Y-53348000D01*
X103758952Y-53300380D01*
X103997047Y-53300380D01*
X104092285Y-53348000D01*
X104139904Y-53395619D01*
X104187523Y-53490857D01*
X104187523Y-53586095D01*
X104139904Y-53728952D01*
X103568476Y-54300380D01*
X104187523Y-54300380D01*
%TO.C,U1*%
X85852095Y-53300380D02*
X85852095Y-54109904D01*
X85899714Y-54205142D01*
X85947333Y-54252761D01*
X86042571Y-54300380D01*
X86233047Y-54300380D01*
X86328285Y-54252761D01*
X86375904Y-54205142D01*
X86423523Y-54109904D01*
X86423523Y-53300380D01*
X87423523Y-54300380D02*
X86852095Y-54300380D01*
X87137809Y-54300380D02*
X87137809Y-53300380D01*
X87042571Y-53443238D01*
X86947333Y-53538476D01*
X86852095Y-53586095D01*
%TO.C,J1*%
X83994666Y-103902380D02*
X83994666Y-104616666D01*
X83947047Y-104759523D01*
X83851809Y-104854761D01*
X83708952Y-104902380D01*
X83613714Y-104902380D01*
X84994666Y-104902380D02*
X84423238Y-104902380D01*
X84708952Y-104902380D02*
X84708952Y-103902380D01*
X84613714Y-104045238D01*
X84518476Y-104140476D01*
X84423238Y-104188095D01*
%TO.C,J2*%
X83994666Y-115078380D02*
X83994666Y-115792666D01*
X83947047Y-115935523D01*
X83851809Y-116030761D01*
X83708952Y-116078380D01*
X83613714Y-116078380D01*
X84423238Y-115173619D02*
X84470857Y-115126000D01*
X84566095Y-115078380D01*
X84804190Y-115078380D01*
X84899428Y-115126000D01*
X84947047Y-115173619D01*
X84994666Y-115268857D01*
X84994666Y-115364095D01*
X84947047Y-115506952D01*
X84375619Y-116078380D01*
X84994666Y-116078380D01*
%TO.C,J3*%
X101448094Y-103902380D02*
X101448094Y-104616666D01*
X101400475Y-104759523D01*
X101305237Y-104854761D01*
X101162380Y-104902380D01*
X101067142Y-104902380D01*
X101829047Y-103902380D02*
X102448094Y-103902380D01*
X102114761Y-104283333D01*
X102257618Y-104283333D01*
X102352856Y-104330952D01*
X102400475Y-104378571D01*
X102448094Y-104473809D01*
X102448094Y-104711904D01*
X102400475Y-104807142D01*
X102352856Y-104854761D01*
X102257618Y-104902380D01*
X101971904Y-104902380D01*
X101876666Y-104854761D01*
X101829047Y-104807142D01*
%TO.C,J4*%
X101448094Y-115078380D02*
X101448094Y-115792666D01*
X101400475Y-115935523D01*
X101305237Y-116030761D01*
X101162380Y-116078380D01*
X101067142Y-116078380D01*
X102352856Y-115411714D02*
X102352856Y-116078380D01*
X102114761Y-115030761D02*
X101876666Y-115745047D01*
X102495713Y-115745047D01*
%TO.C,J5*%
X118901522Y-103902380D02*
X118901522Y-104616666D01*
X118853903Y-104759523D01*
X118758665Y-104854761D01*
X118615808Y-104902380D01*
X118520570Y-104902380D01*
X119853903Y-103902380D02*
X119377713Y-103902380D01*
X119330094Y-104378571D01*
X119377713Y-104330952D01*
X119472951Y-104283333D01*
X119711046Y-104283333D01*
X119806284Y-104330952D01*
X119853903Y-104378571D01*
X119901522Y-104473809D01*
X119901522Y-104711904D01*
X119853903Y-104807142D01*
X119806284Y-104854761D01*
X119711046Y-104902380D01*
X119472951Y-104902380D01*
X119377713Y-104854761D01*
X119330094Y-104807142D01*
%TO.C,J6*%
X118901522Y-115078380D02*
X118901522Y-115792666D01*
X118853903Y-115935523D01*
X118758665Y-116030761D01*
X118615808Y-116078380D01*
X118520570Y-116078380D01*
X119806284Y-115078380D02*
X119615808Y-115078380D01*
X119520570Y-115126000D01*
X119472951Y-115173619D01*
X119377713Y-115316476D01*
X119330094Y-115506952D01*
X119330094Y-115887904D01*
X119377713Y-115983142D01*
X119425332Y-116030761D01*
X119520570Y-116078380D01*
X119711046Y-116078380D01*
X119806284Y-116030761D01*
X119853903Y-115983142D01*
X119901522Y-115887904D01*
X119901522Y-115649809D01*
X119853903Y-115554571D01*
X119806284Y-115506952D01*
X119711046Y-115459333D01*
X119520570Y-115459333D01*
X119425332Y-115506952D01*
X119377713Y-115554571D01*
X119330094Y-115649809D01*
%TO.C,J7*%
X136354950Y-103902380D02*
X136354950Y-104616666D01*
X136307331Y-104759523D01*
X136212093Y-104854761D01*
X136069236Y-104902380D01*
X135973998Y-104902380D01*
X136735903Y-103902380D02*
X137402569Y-103902380D01*
X136973998Y-104902380D01*
%TO.C,J8*%
X136354950Y-115078380D02*
X136354950Y-115792666D01*
X136307331Y-115935523D01*
X136212093Y-116030761D01*
X136069236Y-116078380D01*
X135973998Y-116078380D01*
X136973998Y-115506952D02*
X136878760Y-115459333D01*
X136831141Y-115411714D01*
X136783522Y-115316476D01*
X136783522Y-115268857D01*
X136831141Y-115173619D01*
X136878760Y-115126000D01*
X136973998Y-115078380D01*
X137164474Y-115078380D01*
X137259712Y-115126000D01*
X137307331Y-115173619D01*
X137354950Y-115268857D01*
X137354950Y-115316476D01*
X137307331Y-115411714D01*
X137259712Y-115459333D01*
X137164474Y-115506952D01*
X136973998Y-115506952D01*
X136878760Y-115554571D01*
X136831141Y-115602190D01*
X136783522Y-115697428D01*
X136783522Y-115887904D01*
X136831141Y-115983142D01*
X136878760Y-116030761D01*
X136973998Y-116078380D01*
X137164474Y-116078380D01*
X137259712Y-116030761D01*
X137307331Y-115983142D01*
X137354950Y-115887904D01*
X137354950Y-115697428D01*
X137307331Y-115602190D01*
X137259712Y-115554571D01*
X137164474Y-115506952D01*
%TO.C,J9*%
X153808378Y-103902380D02*
X153808378Y-104616666D01*
X153760759Y-104759523D01*
X153665521Y-104854761D01*
X153522664Y-104902380D01*
X153427426Y-104902380D01*
X154332188Y-104902380D02*
X154522664Y-104902380D01*
X154617902Y-104854761D01*
X154665521Y-104807142D01*
X154760759Y-104664285D01*
X154808378Y-104473809D01*
X154808378Y-104092857D01*
X154760759Y-103997619D01*
X154713140Y-103950000D01*
X154617902Y-103902380D01*
X154427426Y-103902380D01*
X154332188Y-103950000D01*
X154284569Y-103997619D01*
X154236950Y-104092857D01*
X154236950Y-104330952D01*
X154284569Y-104426190D01*
X154332188Y-104473809D01*
X154427426Y-104521428D01*
X154617902Y-104521428D01*
X154713140Y-104473809D01*
X154760759Y-104426190D01*
X154808378Y-104330952D01*
%TO.C,J10*%
X153332188Y-115078380D02*
X153332188Y-115792666D01*
X153284569Y-115935523D01*
X153189331Y-116030761D01*
X153046473Y-116078380D01*
X152951235Y-116078380D01*
X154332188Y-116078380D02*
X153760759Y-116078380D01*
X154046473Y-116078380D02*
X154046473Y-115078380D01*
X153951235Y-115221238D01*
X153855997Y-115316476D01*
X153760759Y-115364095D01*
X154951235Y-115078380D02*
X155046473Y-115078380D01*
X155141712Y-115126000D01*
X155189331Y-115173619D01*
X155236950Y-115268857D01*
X155284569Y-115459333D01*
X155284569Y-115697428D01*
X155236950Y-115887904D01*
X155189331Y-115983142D01*
X155141712Y-116030761D01*
X155046473Y-116078380D01*
X154951235Y-116078380D01*
X154855997Y-116030761D01*
X154808378Y-115983142D01*
X154760759Y-115887904D01*
X154713140Y-115697428D01*
X154713140Y-115459333D01*
X154760759Y-115268857D01*
X154808378Y-115173619D01*
X154855997Y-115126000D01*
X154951235Y-115078380D01*
%TO.C,J11*%
X170785616Y-103902380D02*
X170785616Y-104616666D01*
X170737997Y-104759523D01*
X170642759Y-104854761D01*
X170499901Y-104902380D01*
X170404663Y-104902380D01*
X171785616Y-104902380D02*
X171214187Y-104902380D01*
X171499901Y-104902380D02*
X171499901Y-103902380D01*
X171404663Y-104045238D01*
X171309425Y-104140476D01*
X171214187Y-104188095D01*
X172737997Y-104902380D02*
X172166568Y-104902380D01*
X172452282Y-104902380D02*
X172452282Y-103902380D01*
X172357044Y-104045238D01*
X172261806Y-104140476D01*
X172166568Y-104188095D01*
%TO.C,J12*%
X170785616Y-115078380D02*
X170785616Y-115792666D01*
X170737997Y-115935523D01*
X170642759Y-116030761D01*
X170499901Y-116078380D01*
X170404663Y-116078380D01*
X171785616Y-116078380D02*
X171214187Y-116078380D01*
X171499901Y-116078380D02*
X171499901Y-115078380D01*
X171404663Y-115221238D01*
X171309425Y-115316476D01*
X171214187Y-115364095D01*
X172166568Y-115173619D02*
X172214187Y-115126000D01*
X172309425Y-115078380D01*
X172547520Y-115078380D01*
X172642759Y-115126000D01*
X172690378Y-115173619D01*
X172737997Y-115268857D01*
X172737997Y-115364095D01*
X172690378Y-115506952D01*
X172118949Y-116078380D01*
X172737997Y-116078380D01*
%TO.C,J13*%
X188239044Y-103902380D02*
X188239044Y-104616666D01*
X188191425Y-104759523D01*
X188096187Y-104854761D01*
X187953329Y-104902380D01*
X187858091Y-104902380D01*
X189239044Y-104902380D02*
X188667615Y-104902380D01*
X188953329Y-104902380D02*
X188953329Y-103902380D01*
X188858091Y-104045238D01*
X188762853Y-104140476D01*
X188667615Y-104188095D01*
X189572377Y-103902380D02*
X190191425Y-103902380D01*
X189858091Y-104283333D01*
X190000948Y-104283333D01*
X190096187Y-104330952D01*
X190143806Y-104378571D01*
X190191425Y-104473809D01*
X190191425Y-104711904D01*
X190143806Y-104807142D01*
X190096187Y-104854761D01*
X190000948Y-104902380D01*
X189715234Y-104902380D01*
X189619996Y-104854761D01*
X189572377Y-104807142D01*
%TO.C,J14*%
X188239044Y-115078380D02*
X188239044Y-115792666D01*
X188191425Y-115935523D01*
X188096187Y-116030761D01*
X187953329Y-116078380D01*
X187858091Y-116078380D01*
X189239044Y-116078380D02*
X188667615Y-116078380D01*
X188953329Y-116078380D02*
X188953329Y-115078380D01*
X188858091Y-115221238D01*
X188762853Y-115316476D01*
X188667615Y-115364095D01*
X190096187Y-115411714D02*
X190096187Y-116078380D01*
X189858091Y-115030761D02*
X189619996Y-115745047D01*
X190239044Y-115745047D01*
%TO.C,J15*%
X205692476Y-103902380D02*
X205692476Y-104616666D01*
X205644857Y-104759523D01*
X205549619Y-104854761D01*
X205406761Y-104902380D01*
X205311523Y-104902380D01*
X206692476Y-104902380D02*
X206121047Y-104902380D01*
X206406761Y-104902380D02*
X206406761Y-103902380D01*
X206311523Y-104045238D01*
X206216285Y-104140476D01*
X206121047Y-104188095D01*
X207597238Y-103902380D02*
X207121047Y-103902380D01*
X207073428Y-104378571D01*
X207121047Y-104330952D01*
X207216285Y-104283333D01*
X207454380Y-104283333D01*
X207549619Y-104330952D01*
X207597238Y-104378571D01*
X207644857Y-104473809D01*
X207644857Y-104711904D01*
X207597238Y-104807142D01*
X207549619Y-104854761D01*
X207454380Y-104902380D01*
X207216285Y-104902380D01*
X207121047Y-104854761D01*
X207073428Y-104807142D01*
%TO.C,J16*%
X205692476Y-115078380D02*
X205692476Y-115792666D01*
X205644857Y-115935523D01*
X205549619Y-116030761D01*
X205406761Y-116078380D01*
X205311523Y-116078380D01*
X206692476Y-116078380D02*
X206121047Y-116078380D01*
X206406761Y-116078380D02*
X206406761Y-115078380D01*
X206311523Y-115221238D01*
X206216285Y-115316476D01*
X206121047Y-115364095D01*
X207549619Y-115078380D02*
X207359142Y-115078380D01*
X207263904Y-115126000D01*
X207216285Y-115173619D01*
X207121047Y-115316476D01*
X207073428Y-115506952D01*
X207073428Y-115887904D01*
X207121047Y-115983142D01*
X207168666Y-116030761D01*
X207263904Y-116078380D01*
X207454380Y-116078380D01*
X207549619Y-116030761D01*
X207597238Y-115983142D01*
X207644857Y-115887904D01*
X207644857Y-115649809D01*
X207597238Y-115554571D01*
X207549619Y-115506952D01*
X207454380Y-115459333D01*
X207263904Y-115459333D01*
X207168666Y-115506952D01*
X207121047Y-115554571D01*
X207073428Y-115649809D01*
%TO.C,R1*%
X87446380Y-89828666D02*
X86970190Y-90162000D01*
X87446380Y-90400095D02*
X86446380Y-90400095D01*
X86446380Y-90019142D01*
X86494000Y-89923904D01*
X86541619Y-89876285D01*
X86636857Y-89828666D01*
X86779714Y-89828666D01*
X86874952Y-89876285D01*
X86922571Y-89923904D01*
X86970190Y-90019142D01*
X86970190Y-90400095D01*
X87446380Y-88876285D02*
X87446380Y-89447714D01*
X87446380Y-89162000D02*
X86446380Y-89162000D01*
X86589238Y-89257238D01*
X86684476Y-89352476D01*
X86732095Y-89447714D01*
%TO.C,R2*%
X104936094Y-89828666D02*
X104459904Y-90162000D01*
X104936094Y-90400095D02*
X103936094Y-90400095D01*
X103936094Y-90019142D01*
X103983714Y-89923904D01*
X104031333Y-89876285D01*
X104126571Y-89828666D01*
X104269428Y-89828666D01*
X104364666Y-89876285D01*
X104412285Y-89923904D01*
X104459904Y-90019142D01*
X104459904Y-90400095D01*
X104031333Y-89447714D02*
X103983714Y-89400095D01*
X103936094Y-89304857D01*
X103936094Y-89066761D01*
X103983714Y-88971523D01*
X104031333Y-88923904D01*
X104126571Y-88876285D01*
X104221809Y-88876285D01*
X104364666Y-88923904D01*
X104936094Y-89495333D01*
X104936094Y-88876285D01*
%TO.C,R3*%
X122425808Y-89828666D02*
X121949618Y-90162000D01*
X122425808Y-90400095D02*
X121425808Y-90400095D01*
X121425808Y-90019142D01*
X121473428Y-89923904D01*
X121521047Y-89876285D01*
X121616285Y-89828666D01*
X121759142Y-89828666D01*
X121854380Y-89876285D01*
X121901999Y-89923904D01*
X121949618Y-90019142D01*
X121949618Y-90400095D01*
X121425808Y-89495333D02*
X121425808Y-88876285D01*
X121806761Y-89209619D01*
X121806761Y-89066761D01*
X121854380Y-88971523D01*
X121901999Y-88923904D01*
X121997237Y-88876285D01*
X122235332Y-88876285D01*
X122330570Y-88923904D01*
X122378189Y-88971523D01*
X122425808Y-89066761D01*
X122425808Y-89352476D01*
X122378189Y-89447714D01*
X122330570Y-89495333D01*
%TO.C,R4*%
X139915522Y-89828666D02*
X139439332Y-90162000D01*
X139915522Y-90400095D02*
X138915522Y-90400095D01*
X138915522Y-90019142D01*
X138963142Y-89923904D01*
X139010761Y-89876285D01*
X139105999Y-89828666D01*
X139248856Y-89828666D01*
X139344094Y-89876285D01*
X139391713Y-89923904D01*
X139439332Y-90019142D01*
X139439332Y-90400095D01*
X139248856Y-88971523D02*
X139915522Y-88971523D01*
X138867903Y-89209619D02*
X139582189Y-89447714D01*
X139582189Y-88828666D01*
%TO.C,R5*%
X157405236Y-89828666D02*
X156929046Y-90162000D01*
X157405236Y-90400095D02*
X156405236Y-90400095D01*
X156405236Y-90019142D01*
X156452856Y-89923904D01*
X156500475Y-89876285D01*
X156595713Y-89828666D01*
X156738570Y-89828666D01*
X156833808Y-89876285D01*
X156881427Y-89923904D01*
X156929046Y-90019142D01*
X156929046Y-90400095D01*
X156405236Y-88923904D02*
X156405236Y-89400095D01*
X156881427Y-89447714D01*
X156833808Y-89400095D01*
X156786189Y-89304857D01*
X156786189Y-89066761D01*
X156833808Y-88971523D01*
X156881427Y-88923904D01*
X156976665Y-88876285D01*
X157214760Y-88876285D01*
X157309998Y-88923904D01*
X157357617Y-88971523D01*
X157405236Y-89066761D01*
X157405236Y-89304857D01*
X157357617Y-89400095D01*
X157309998Y-89447714D01*
%TO.C,R6*%
X174894950Y-89828666D02*
X174418760Y-90162000D01*
X174894950Y-90400095D02*
X173894950Y-90400095D01*
X173894950Y-90019142D01*
X173942570Y-89923904D01*
X173990189Y-89876285D01*
X174085427Y-89828666D01*
X174228284Y-89828666D01*
X174323522Y-89876285D01*
X174371141Y-89923904D01*
X174418760Y-90019142D01*
X174418760Y-90400095D01*
X173894950Y-88971523D02*
X173894950Y-89162000D01*
X173942570Y-89257238D01*
X173990189Y-89304857D01*
X174133046Y-89400095D01*
X174323522Y-89447714D01*
X174704474Y-89447714D01*
X174799712Y-89400095D01*
X174847331Y-89352476D01*
X174894950Y-89257238D01*
X174894950Y-89066761D01*
X174847331Y-88971523D01*
X174799712Y-88923904D01*
X174704474Y-88876285D01*
X174466379Y-88876285D01*
X174371141Y-88923904D01*
X174323522Y-88971523D01*
X174275903Y-89066761D01*
X174275903Y-89257238D01*
X174323522Y-89352476D01*
X174371141Y-89400095D01*
X174466379Y-89447714D01*
%TO.C,R7*%
X192384664Y-89828666D02*
X191908474Y-90162000D01*
X192384664Y-90400095D02*
X191384664Y-90400095D01*
X191384664Y-90019142D01*
X191432284Y-89923904D01*
X191479903Y-89876285D01*
X191575141Y-89828666D01*
X191717998Y-89828666D01*
X191813236Y-89876285D01*
X191860855Y-89923904D01*
X191908474Y-90019142D01*
X191908474Y-90400095D01*
X191384664Y-89495333D02*
X191384664Y-88828666D01*
X192384664Y-89257238D01*
%TO.C,R8*%
X209874380Y-90082666D02*
X209398190Y-90416000D01*
X209874380Y-90654095D02*
X208874380Y-90654095D01*
X208874380Y-90273142D01*
X208922000Y-90177904D01*
X208969619Y-90130285D01*
X209064857Y-90082666D01*
X209207714Y-90082666D01*
X209302952Y-90130285D01*
X209350571Y-90177904D01*
X209398190Y-90273142D01*
X209398190Y-90654095D01*
X209302952Y-89511238D02*
X209255333Y-89606476D01*
X209207714Y-89654095D01*
X209112476Y-89701714D01*
X209064857Y-89701714D01*
X208969619Y-89654095D01*
X208922000Y-89606476D01*
X208874380Y-89511238D01*
X208874380Y-89320761D01*
X208922000Y-89225523D01*
X208969619Y-89177904D01*
X209064857Y-89130285D01*
X209112476Y-89130285D01*
X209207714Y-89177904D01*
X209255333Y-89225523D01*
X209302952Y-89320761D01*
X209302952Y-89511238D01*
X209350571Y-89606476D01*
X209398190Y-89654095D01*
X209493428Y-89701714D01*
X209683904Y-89701714D01*
X209779142Y-89654095D01*
X209826761Y-89606476D01*
X209874380Y-89511238D01*
X209874380Y-89320761D01*
X209826761Y-89225523D01*
X209779142Y-89177904D01*
X209683904Y-89130285D01*
X209493428Y-89130285D01*
X209398190Y-89177904D01*
X209350571Y-89225523D01*
X209302952Y-89320761D01*
%TD*%
M02*
