%TF.GenerationSoftware,KiCad,Pcbnew,(5.1.9)-1*%
%TF.CreationDate,2021-04-13T13:52:40+02:00*%
%TF.ProjectId,Tasterplatine,54617374-6572-4706-9c61-74696e652e6b,rev?*%
%TF.SameCoordinates,Original*%
%TF.FileFunction,Copper,L2,Bot*%
%TF.FilePolarity,Positive*%
%FSLAX46Y46*%
G04 Gerber Fmt 4.6, Leading zero omitted, Abs format (unit mm)*
G04 Created by KiCad (PCBNEW (5.1.9)-1) date 2021-04-13 13:52:40*
%MOMM*%
%LPD*%
G01*
G04 APERTURE LIST*
%TA.AperFunction,ComponentPad*%
%ADD10C,1.524000*%
%TD*%
%TA.AperFunction,ComponentPad*%
%ADD11C,2.000000*%
%TD*%
%TA.AperFunction,ComponentPad*%
%ADD12O,2.400000X2.400000*%
%TD*%
%TA.AperFunction,ComponentPad*%
%ADD13C,2.400000*%
%TD*%
%TA.AperFunction,Conductor*%
%ADD14C,0.250000*%
%TD*%
G04 APERTURE END LIST*
D10*
%TO.P,U8,7*%
%TO.N,N/C*%
X207772000Y-56388000D03*
%TO.P,U8,6*%
X200152000Y-71628000D03*
%TO.P,U8,2*%
%TO.N,Net-(J16-Pad3)*%
X207772000Y-69088000D03*
%TO.P,U8,3*%
%TO.N,Net-(J16-Pad1)*%
X200152000Y-69088000D03*
%TO.P,U8,1*%
%TO.N,Net-(J16-Pad2)*%
X200152000Y-64008000D03*
X207772000Y-64008000D03*
%TO.P,U8,5*%
%TO.N,Net-(J15-Pad3)*%
X205232000Y-58928000D03*
%TO.P,U8,4*%
%TO.N,Net-(R8-Pad1)*%
X202692000Y-58928000D03*
%TD*%
%TO.P,U7,7*%
%TO.N,N/C*%
X191008000Y-56388000D03*
%TO.P,U7,6*%
X183388000Y-71628000D03*
%TO.P,U7,2*%
%TO.N,Net-(J14-Pad3)*%
X191008000Y-69088000D03*
%TO.P,U7,3*%
%TO.N,Net-(J14-Pad1)*%
X183388000Y-69088000D03*
%TO.P,U7,1*%
%TO.N,Net-(J14-Pad2)*%
X183388000Y-64008000D03*
X191008000Y-64008000D03*
%TO.P,U7,5*%
%TO.N,Net-(J13-Pad3)*%
X188468000Y-58928000D03*
%TO.P,U7,4*%
%TO.N,Net-(R7-Pad1)*%
X185928000Y-58928000D03*
%TD*%
%TO.P,U6,7*%
%TO.N,N/C*%
X174244000Y-56388000D03*
%TO.P,U6,6*%
X166624000Y-71628000D03*
%TO.P,U6,2*%
%TO.N,Net-(J12-Pad3)*%
X174244000Y-69088000D03*
%TO.P,U6,3*%
%TO.N,Net-(J12-Pad1)*%
X166624000Y-69088000D03*
%TO.P,U6,1*%
%TO.N,Net-(J12-Pad2)*%
X166624000Y-64008000D03*
X174244000Y-64008000D03*
%TO.P,U6,5*%
%TO.N,Net-(J11-Pad3)*%
X171704000Y-58928000D03*
%TO.P,U6,4*%
%TO.N,Net-(R6-Pad1)*%
X169164000Y-58928000D03*
%TD*%
%TO.P,U5,7*%
%TO.N,N/C*%
X157480000Y-56388000D03*
%TO.P,U5,6*%
X149860000Y-71628000D03*
%TO.P,U5,2*%
%TO.N,Net-(J10-Pad3)*%
X157480000Y-69088000D03*
%TO.P,U5,3*%
%TO.N,Net-(J10-Pad1)*%
X149860000Y-69088000D03*
%TO.P,U5,1*%
%TO.N,Net-(J10-Pad2)*%
X149860000Y-64008000D03*
X157480000Y-64008000D03*
%TO.P,U5,5*%
%TO.N,Net-(J9-Pad3)*%
X154940000Y-58928000D03*
%TO.P,U5,4*%
%TO.N,Net-(R5-Pad1)*%
X152400000Y-58928000D03*
%TD*%
%TO.P,U4,7*%
%TO.N,N/C*%
X140716000Y-56388000D03*
%TO.P,U4,6*%
X133096000Y-71628000D03*
%TO.P,U4,2*%
%TO.N,Net-(J8-Pad3)*%
X140716000Y-69088000D03*
%TO.P,U4,3*%
%TO.N,Net-(J8-Pad1)*%
X133096000Y-69088000D03*
%TO.P,U4,1*%
%TO.N,Net-(J8-Pad2)*%
X133096000Y-64008000D03*
X140716000Y-64008000D03*
%TO.P,U4,5*%
%TO.N,Net-(J7-Pad3)*%
X138176000Y-58928000D03*
%TO.P,U4,4*%
%TO.N,Net-(R4-Pad1)*%
X135636000Y-58928000D03*
%TD*%
%TO.P,U3,7*%
%TO.N,N/C*%
X123952000Y-56388000D03*
%TO.P,U3,6*%
X116332000Y-71628000D03*
%TO.P,U3,2*%
%TO.N,Net-(J6-Pad3)*%
X123952000Y-69088000D03*
%TO.P,U3,3*%
%TO.N,Net-(J6-Pad1)*%
X116332000Y-69088000D03*
%TO.P,U3,1*%
%TO.N,Net-(J6-Pad2)*%
X116332000Y-64008000D03*
X123952000Y-64008000D03*
%TO.P,U3,5*%
%TO.N,Net-(J5-Pad3)*%
X121412000Y-58928000D03*
%TO.P,U3,4*%
%TO.N,Net-(R3-Pad1)*%
X118872000Y-58928000D03*
%TD*%
%TO.P,U2,7*%
%TO.N,N/C*%
X107188000Y-56388000D03*
%TO.P,U2,6*%
X99568000Y-71628000D03*
%TO.P,U2,2*%
%TO.N,Net-(J4-Pad3)*%
X107188000Y-69088000D03*
%TO.P,U2,3*%
%TO.N,Net-(J4-Pad1)*%
X99568000Y-69088000D03*
%TO.P,U2,1*%
%TO.N,Net-(J4-Pad2)*%
X99568000Y-64008000D03*
X107188000Y-64008000D03*
%TO.P,U2,5*%
%TO.N,Net-(J3-Pad3)*%
X104648000Y-58928000D03*
%TO.P,U2,4*%
%TO.N,Net-(R2-Pad1)*%
X102108000Y-58928000D03*
%TD*%
%TO.P,U1,7*%
%TO.N,N/C*%
X90424000Y-56388000D03*
%TO.P,U1,6*%
X82804000Y-71628000D03*
%TO.P,U1,2*%
%TO.N,Net-(J2-Pad3)*%
X90424000Y-69088000D03*
%TO.P,U1,3*%
%TO.N,Net-(J2-Pad1)*%
X82804000Y-69088000D03*
%TO.P,U1,1*%
%TO.N,Net-(J2-Pad2)*%
X82804000Y-64008000D03*
X90424000Y-64008000D03*
%TO.P,U1,5*%
%TO.N,Net-(J1-Pad3)*%
X87884000Y-58928000D03*
%TO.P,U1,4*%
%TO.N,Net-(R1-Pad1)*%
X85344000Y-58928000D03*
%TD*%
D11*
%TO.P,J1,3*%
%TO.N,Net-(J1-Pad3)*%
X86868000Y-107950000D03*
%TO.P,J1,2*%
%TO.N,Net-(J1-Pad2)*%
X84328000Y-107950000D03*
%TO.P,J1,1*%
%TO.N,Net-(J1-Pad1)*%
X81788000Y-107950000D03*
%TD*%
%TO.P,J2,3*%
%TO.N,Net-(J2-Pad3)*%
X86868000Y-119126000D03*
%TO.P,J2,2*%
%TO.N,Net-(J2-Pad2)*%
X84328000Y-119126000D03*
%TO.P,J2,1*%
%TO.N,Net-(J2-Pad1)*%
X81788000Y-119126000D03*
%TD*%
%TO.P,J3,1*%
%TO.N,Net-(J3-Pad1)*%
X99241428Y-107950000D03*
%TO.P,J3,2*%
%TO.N,Net-(J3-Pad2)*%
X101781428Y-107950000D03*
%TO.P,J3,3*%
%TO.N,Net-(J3-Pad3)*%
X104321428Y-107950000D03*
%TD*%
%TO.P,J4,1*%
%TO.N,Net-(J4-Pad1)*%
X99241428Y-119126000D03*
%TO.P,J4,2*%
%TO.N,Net-(J4-Pad2)*%
X101781428Y-119126000D03*
%TO.P,J4,3*%
%TO.N,Net-(J4-Pad3)*%
X104321428Y-119126000D03*
%TD*%
%TO.P,J5,1*%
%TO.N,Net-(J5-Pad1)*%
X116694856Y-107950000D03*
%TO.P,J5,2*%
%TO.N,Net-(J5-Pad2)*%
X119234856Y-107950000D03*
%TO.P,J5,3*%
%TO.N,Net-(J5-Pad3)*%
X121774856Y-107950000D03*
%TD*%
%TO.P,J6,3*%
%TO.N,Net-(J6-Pad3)*%
X121774856Y-119126000D03*
%TO.P,J6,2*%
%TO.N,Net-(J6-Pad2)*%
X119234856Y-119126000D03*
%TO.P,J6,1*%
%TO.N,Net-(J6-Pad1)*%
X116694856Y-119126000D03*
%TD*%
%TO.P,J7,3*%
%TO.N,Net-(J7-Pad3)*%
X139228284Y-107950000D03*
%TO.P,J7,2*%
%TO.N,Net-(J7-Pad2)*%
X136688284Y-107950000D03*
%TO.P,J7,1*%
%TO.N,Net-(J7-Pad1)*%
X134148284Y-107950000D03*
%TD*%
%TO.P,J8,1*%
%TO.N,Net-(J8-Pad1)*%
X134148284Y-119126000D03*
%TO.P,J8,2*%
%TO.N,Net-(J8-Pad2)*%
X136688284Y-119126000D03*
%TO.P,J8,3*%
%TO.N,Net-(J8-Pad3)*%
X139228284Y-119126000D03*
%TD*%
%TO.P,J9,1*%
%TO.N,Net-(J9-Pad1)*%
X151601712Y-107950000D03*
%TO.P,J9,2*%
%TO.N,Net-(J9-Pad2)*%
X154141712Y-107950000D03*
%TO.P,J9,3*%
%TO.N,Net-(J9-Pad3)*%
X156681712Y-107950000D03*
%TD*%
%TO.P,J10,3*%
%TO.N,Net-(J10-Pad3)*%
X156681712Y-119126000D03*
%TO.P,J10,2*%
%TO.N,Net-(J10-Pad2)*%
X154141712Y-119126000D03*
%TO.P,J10,1*%
%TO.N,Net-(J10-Pad1)*%
X151601712Y-119126000D03*
%TD*%
%TO.P,J11,3*%
%TO.N,Net-(J11-Pad3)*%
X174135140Y-107950000D03*
%TO.P,J11,2*%
%TO.N,Net-(J11-Pad2)*%
X171595140Y-107950000D03*
%TO.P,J11,1*%
%TO.N,Net-(J11-Pad1)*%
X169055140Y-107950000D03*
%TD*%
%TO.P,J12,1*%
%TO.N,Net-(J12-Pad1)*%
X169055140Y-119126000D03*
%TO.P,J12,2*%
%TO.N,Net-(J12-Pad2)*%
X171595140Y-119126000D03*
%TO.P,J12,3*%
%TO.N,Net-(J12-Pad3)*%
X174135140Y-119126000D03*
%TD*%
%TO.P,J13,1*%
%TO.N,Net-(J13-Pad1)*%
X186508568Y-107950000D03*
%TO.P,J13,2*%
%TO.N,Net-(J13-Pad2)*%
X189048568Y-107950000D03*
%TO.P,J13,3*%
%TO.N,Net-(J13-Pad3)*%
X191588568Y-107950000D03*
%TD*%
%TO.P,J14,3*%
%TO.N,Net-(J14-Pad3)*%
X191588568Y-119126000D03*
%TO.P,J14,2*%
%TO.N,Net-(J14-Pad2)*%
X189048568Y-119126000D03*
%TO.P,J14,1*%
%TO.N,Net-(J14-Pad1)*%
X186508568Y-119126000D03*
%TD*%
%TO.P,J15,3*%
%TO.N,Net-(J15-Pad3)*%
X209042000Y-107950000D03*
%TO.P,J15,2*%
%TO.N,Net-(J15-Pad2)*%
X206502000Y-107950000D03*
%TO.P,J15,1*%
%TO.N,Net-(J15-Pad1)*%
X203962000Y-107950000D03*
%TD*%
%TO.P,J16,1*%
%TO.N,Net-(J16-Pad1)*%
X203962000Y-119126000D03*
%TO.P,J16,2*%
%TO.N,Net-(J16-Pad2)*%
X206502000Y-119126000D03*
%TO.P,J16,3*%
%TO.N,Net-(J16-Pad3)*%
X209042000Y-119126000D03*
%TD*%
D12*
%TO.P,R1,2*%
%TO.N,Net-(J1-Pad2)*%
X84074000Y-96012000D03*
D13*
%TO.P,R1,1*%
%TO.N,Net-(R1-Pad1)*%
X84074000Y-83312000D03*
%TD*%
D12*
%TO.P,R2,2*%
%TO.N,Net-(J3-Pad2)*%
X101563714Y-96012000D03*
D13*
%TO.P,R2,1*%
%TO.N,Net-(R2-Pad1)*%
X101563714Y-83312000D03*
%TD*%
%TO.P,R3,1*%
%TO.N,Net-(R3-Pad1)*%
X119053428Y-83312000D03*
D12*
%TO.P,R3,2*%
%TO.N,Net-(J5-Pad2)*%
X119053428Y-96012000D03*
%TD*%
D13*
%TO.P,R4,1*%
%TO.N,Net-(R4-Pad1)*%
X136543142Y-83312000D03*
D12*
%TO.P,R4,2*%
%TO.N,Net-(J7-Pad2)*%
X136543142Y-96012000D03*
%TD*%
%TO.P,R5,2*%
%TO.N,Net-(J9-Pad2)*%
X154032856Y-96012000D03*
D13*
%TO.P,R5,1*%
%TO.N,Net-(R5-Pad1)*%
X154032856Y-83312000D03*
%TD*%
D12*
%TO.P,R6,2*%
%TO.N,Net-(J11-Pad2)*%
X171522570Y-96012000D03*
D13*
%TO.P,R6,1*%
%TO.N,Net-(R6-Pad1)*%
X171522570Y-83312000D03*
%TD*%
%TO.P,R7,1*%
%TO.N,Net-(R7-Pad1)*%
X189012284Y-83312000D03*
D12*
%TO.P,R7,2*%
%TO.N,Net-(J13-Pad2)*%
X189012284Y-96012000D03*
%TD*%
D13*
%TO.P,R8,1*%
%TO.N,Net-(R8-Pad1)*%
X206502000Y-83566000D03*
D12*
%TO.P,R8,2*%
%TO.N,Net-(J15-Pad2)*%
X206502000Y-96266000D03*
%TD*%
D14*
%TO.N,Net-(J1-Pad2)*%
X84074000Y-107696000D02*
X84328000Y-107950000D01*
X84074000Y-96012000D02*
X84074000Y-107696000D01*
%TO.N,Net-(J2-Pad3)*%
X90424000Y-69088000D02*
X91948000Y-70612000D01*
X91948000Y-70612000D02*
X91948000Y-114808000D01*
X87630000Y-119126000D02*
X86868000Y-119126000D01*
X91948000Y-114808000D02*
X87630000Y-119126000D01*
%TO.N,Net-(J2-Pad2)*%
X90424000Y-64008000D02*
X82804000Y-64008000D01*
X90424000Y-64008000D02*
X87376000Y-67056000D01*
X87376000Y-88138000D02*
X88646000Y-89408000D01*
X87376000Y-67056000D02*
X87376000Y-88138000D01*
X84906998Y-119126000D02*
X84328000Y-119126000D01*
X88646000Y-115386998D02*
X84906998Y-119126000D01*
X88646000Y-89408000D02*
X88646000Y-115386998D01*
%TO.N,Net-(J2-Pad1)*%
X82804000Y-69088000D02*
X77978000Y-73914000D01*
X77978000Y-73914000D02*
X77978000Y-116332000D01*
X80772000Y-119126000D02*
X81788000Y-119126000D01*
X77978000Y-116332000D02*
X80772000Y-119126000D01*
%TO.N,Net-(J3-Pad2)*%
X101563714Y-107732286D02*
X101781428Y-107950000D01*
X101563714Y-96012000D02*
X101563714Y-107732286D01*
%TO.N,Net-(J4-Pad1)*%
X95250000Y-115134572D02*
X99241428Y-119126000D01*
X95250000Y-73406000D02*
X95250000Y-115134572D01*
X99568000Y-69088000D02*
X95250000Y-73406000D01*
%TO.N,Net-(J4-Pad2)*%
X107188000Y-64008000D02*
X99568000Y-64008000D01*
X107188000Y-64008000D02*
X107188000Y-65786000D01*
X107188000Y-65786000D02*
X102616000Y-70358000D01*
X102616000Y-70358000D02*
X102616000Y-74930000D01*
X96774000Y-111252000D02*
X96774000Y-80772000D01*
X101781428Y-116259428D02*
X96774000Y-111252000D01*
X101781428Y-119126000D02*
X101781428Y-116259428D01*
X97282000Y-80264000D02*
X97028000Y-80518000D01*
X96774000Y-80772000D02*
X97282000Y-80264000D01*
X102616000Y-74930000D02*
X97282000Y-80264000D01*
%TO.N,Net-(J4-Pad3)*%
X107188000Y-69088000D02*
X110490000Y-72390000D01*
X110490000Y-72390000D02*
X110490000Y-114808000D01*
X106172000Y-119126000D02*
X104321428Y-119126000D01*
X110490000Y-114808000D02*
X106172000Y-119126000D01*
%TO.N,Net-(J5-Pad2)*%
X119053428Y-107768572D02*
X119234856Y-107950000D01*
X119053428Y-96012000D02*
X119053428Y-107768572D01*
%TO.N,Net-(J6-Pad3)*%
X123952000Y-69088000D02*
X125984000Y-71120000D01*
X125984000Y-71120000D02*
X125984000Y-116586000D01*
X123444000Y-119126000D02*
X121774856Y-119126000D01*
X125984000Y-116586000D02*
X123444000Y-119126000D01*
%TO.N,Net-(J6-Pad2)*%
X123952000Y-64008000D02*
X116332000Y-64008000D01*
X123952000Y-64008000D02*
X119888000Y-68072000D01*
X119888000Y-73406000D02*
X115316000Y-77978000D01*
X119888000Y-68072000D02*
X119888000Y-73406000D01*
X115316000Y-77978000D02*
X115316000Y-115316000D01*
X115424856Y-115316000D02*
X119234856Y-119126000D01*
X115316000Y-115316000D02*
X115424856Y-115316000D01*
%TO.N,Net-(J6-Pad1)*%
X113284000Y-115715144D02*
X116694856Y-119126000D01*
X113284000Y-72136000D02*
X113284000Y-115715144D01*
X116332000Y-69088000D02*
X113284000Y-72136000D01*
%TO.N,Net-(J7-Pad2)*%
X136543142Y-107804858D02*
X136688284Y-107950000D01*
X136543142Y-96012000D02*
X136543142Y-107804858D01*
%TO.N,Net-(J8-Pad1)*%
X133096000Y-69088000D02*
X130302000Y-71882000D01*
X130302000Y-71882000D02*
X130302000Y-114554000D01*
X134148284Y-118400284D02*
X134148284Y-119126000D01*
X130302000Y-114554000D02*
X134148284Y-118400284D01*
%TO.N,Net-(J8-Pad2)*%
X140716000Y-64008000D02*
X133096000Y-64008000D01*
X140716000Y-64008000D02*
X136652000Y-68072000D01*
X136652000Y-68072000D02*
X136652000Y-75946000D01*
X136652000Y-75946000D02*
X132080000Y-80518000D01*
X136109286Y-119126000D02*
X136688284Y-119126000D01*
X132080000Y-115096714D02*
X136109286Y-119126000D01*
X132080000Y-80518000D02*
X132080000Y-115096714D01*
%TO.N,Net-(J8-Pad3)*%
X140716000Y-69088000D02*
X142240000Y-70612000D01*
X142240000Y-70612000D02*
X142240000Y-116840000D01*
X139954000Y-119126000D02*
X139228284Y-119126000D01*
X142240000Y-116840000D02*
X139954000Y-119126000D01*
%TO.N,Net-(J9-Pad2)*%
X154032856Y-107841144D02*
X154141712Y-107950000D01*
X154032856Y-96012000D02*
X154032856Y-107841144D01*
%TO.N,Net-(J10-Pad3)*%
X157480000Y-69088000D02*
X160528000Y-72136000D01*
X160528000Y-72136000D02*
X160528000Y-116586000D01*
X157988000Y-119126000D02*
X156681712Y-119126000D01*
X160528000Y-116586000D02*
X157988000Y-119126000D01*
%TO.N,Net-(J10-Pad2)*%
X157480000Y-64008000D02*
X149098000Y-64008000D01*
X149098000Y-64008000D02*
X149860000Y-64008000D01*
X157480000Y-64008000D02*
X153670000Y-67818000D01*
X153670000Y-67818000D02*
X153670000Y-77724000D01*
X153670000Y-77724000D02*
X149352000Y-82042000D01*
X149352000Y-90932000D02*
X149606000Y-91186000D01*
X149352000Y-82042000D02*
X149352000Y-90932000D01*
X153562714Y-119126000D02*
X154141712Y-119126000D01*
X149606000Y-115169286D02*
X153562714Y-119126000D01*
X149606000Y-91186000D02*
X149606000Y-115169286D01*
%TO.N,Net-(J10-Pad1)*%
X149860000Y-69088000D02*
X146050000Y-72898000D01*
X146050000Y-113574288D02*
X151601712Y-119126000D01*
X146050000Y-72898000D02*
X146050000Y-113574288D01*
%TO.N,Net-(J11-Pad2)*%
X171595140Y-107950000D02*
X171450000Y-107950000D01*
X171450000Y-96084570D02*
X171522570Y-96012000D01*
X171450000Y-107950000D02*
X171450000Y-96084570D01*
%TO.N,Net-(J12-Pad1)*%
X166624000Y-69088000D02*
X163830000Y-71882000D01*
X163830000Y-71882000D02*
X163830000Y-114046000D01*
X168910000Y-119126000D02*
X169055140Y-119126000D01*
X163830000Y-114046000D02*
X168910000Y-119126000D01*
%TO.N,Net-(J12-Pad2)*%
X174244000Y-64008000D02*
X166624000Y-64008000D01*
X174244000Y-64008000D02*
X174244000Y-65532000D01*
X174244000Y-65532000D02*
X170434000Y-69342000D01*
X170434000Y-69342000D02*
X170434000Y-76200000D01*
X170434000Y-76200000D02*
X166116000Y-80518000D01*
X171016142Y-119126000D02*
X171595140Y-119126000D01*
X166116000Y-114225858D02*
X171016142Y-119126000D01*
X166116000Y-80518000D02*
X166116000Y-114225858D01*
%TO.N,Net-(J12-Pad3)*%
X174244000Y-69088000D02*
X177292000Y-72136000D01*
X177292000Y-72136000D02*
X177292000Y-117348000D01*
X175514000Y-119126000D02*
X174135140Y-119126000D01*
X177292000Y-117348000D02*
X175514000Y-119126000D01*
%TO.N,Net-(J13-Pad2)*%
X189012284Y-107913716D02*
X189048568Y-107950000D01*
X189012284Y-96012000D02*
X189012284Y-107913716D01*
%TO.N,Net-(J14-Pad3)*%
X191008000Y-69088000D02*
X193548000Y-71628000D01*
X193548000Y-71628000D02*
X193548000Y-117348000D01*
X193366568Y-117348000D02*
X191588568Y-119126000D01*
X193548000Y-117348000D02*
X193366568Y-117348000D01*
%TO.N,Net-(J14-Pad2)*%
X191008000Y-64008000D02*
X183388000Y-64008000D01*
X191008000Y-64008000D02*
X187198000Y-67818000D01*
X187198000Y-67818000D02*
X187198000Y-76454000D01*
X187198000Y-76454000D02*
X183134000Y-80518000D01*
X183134000Y-80518000D02*
X183134000Y-112522000D01*
X189048568Y-118436568D02*
X189048568Y-119126000D01*
X183134000Y-112522000D02*
X189048568Y-118436568D01*
%TO.N,Net-(J14-Pad1)*%
X183388000Y-69088000D02*
X180848000Y-71628000D01*
X180848000Y-113465432D02*
X186508568Y-119126000D01*
X180848000Y-71628000D02*
X180848000Y-113465432D01*
%TO.N,Net-(J15-Pad2)*%
X206502000Y-96266000D02*
X206502000Y-107950000D01*
%TO.N,Net-(J16-Pad1)*%
X200152000Y-69088000D02*
X198120000Y-71120000D01*
X198120000Y-71120000D02*
X198120000Y-115570000D01*
X201676000Y-119126000D02*
X203962000Y-119126000D01*
X198120000Y-115570000D02*
X201676000Y-119126000D01*
%TO.N,Net-(J16-Pad2)*%
X207772000Y-64008000D02*
X200152000Y-64008000D01*
X207772000Y-64008000D02*
X207772000Y-67310000D01*
X207772000Y-67310000D02*
X201676000Y-73406000D01*
X201676000Y-73406000D02*
X201676000Y-113792000D01*
X206502000Y-118618000D02*
X206502000Y-119126000D01*
X201676000Y-113792000D02*
X206502000Y-118618000D01*
%TO.N,Net-(J16-Pad3)*%
X207772000Y-69088000D02*
X211328000Y-72644000D01*
X211328000Y-72644000D02*
X211328000Y-115824000D01*
X209042000Y-118110000D02*
X209042000Y-119126000D01*
X211328000Y-115824000D02*
X209042000Y-118110000D01*
%TD*%
M02*
