M48
; DRILL file {KiCad (5.1.9)-1} date 04/13/21 13:52:38
; FORMAT={-:-/ absolute / metric / decimal}
; #@! TF.CreationDate,2021-04-13T13:52:38+02:00
; #@! TF.GenerationSoftware,Kicad,Pcbnew,(5.1.9)-1
; #@! TF.FileFunction,Plated,1,2,PTH
FMAT,2
METRIC
T1C0.762
T2C0.820
T3C0.950
T4C1.000
T5C1.200
%
G90
G05
T1
X82.804Y-64.008
X85.344Y-58.928
X87.884Y-58.928
X90.424Y-64.008
X99.568Y-64.008
X102.108Y-58.928
X104.648Y-58.928
X107.188Y-64.008
X116.332Y-64.008
X118.872Y-58.928
X121.412Y-58.928
X123.952Y-64.008
X133.096Y-64.008
X135.636Y-58.928
X138.176Y-58.928
X140.716Y-64.008
X149.86Y-64.008
X152.4Y-58.928
X154.94Y-58.928
X157.48Y-64.008
X166.624Y-64.008
X169.164Y-58.928
X171.704Y-58.928
X174.244Y-64.008
X183.388Y-64.008
X185.928Y-58.928
X188.468Y-58.928
X191.008Y-64.008
X200.152Y-64.008
X202.692Y-58.928
X205.232Y-58.928
X207.772Y-64.008
T2
X82.804Y-69.088
X90.424Y-69.088
X99.568Y-69.088
X107.188Y-69.088
X116.332Y-69.088
X123.952Y-69.088
X133.096Y-69.088
X140.716Y-69.088
X149.86Y-69.088
X157.48Y-69.088
X166.624Y-69.088
X174.244Y-69.088
X183.388Y-69.088
X191.008Y-69.088
X200.152Y-69.088
X207.772Y-69.088
T3
X82.804Y-71.628
X90.424Y-56.388
X99.568Y-71.628
X107.188Y-56.388
X116.332Y-71.628
X123.952Y-56.388
X133.096Y-71.628
X140.716Y-56.388
X149.86Y-71.628
X157.48Y-56.388
X166.624Y-71.628
X174.244Y-56.388
X183.388Y-71.628
X191.008Y-56.388
X200.152Y-71.628
X207.772Y-56.388
T4
X81.788Y-107.95
X81.788Y-119.126
X84.328Y-107.95
X84.328Y-119.126
X86.868Y-107.95
X86.868Y-119.126
X99.241Y-107.95
X99.241Y-119.126
X101.781Y-107.95
X101.781Y-119.126
X104.321Y-107.95
X104.321Y-119.126
X116.695Y-107.95
X116.695Y-119.126
X119.235Y-107.95
X119.235Y-119.126
X121.775Y-107.95
X121.775Y-119.126
X134.148Y-107.95
X134.148Y-119.126
X136.688Y-107.95
X136.688Y-119.126
X139.228Y-107.95
X139.228Y-119.126
X151.602Y-107.95
X151.602Y-119.126
X154.142Y-107.95
X154.142Y-119.126
X156.682Y-107.95
X156.682Y-119.126
X169.055Y-107.95
X169.055Y-119.126
X171.595Y-107.95
X171.595Y-119.126
X174.135Y-107.95
X174.135Y-119.126
X186.509Y-107.95
X186.509Y-119.126
X189.049Y-107.95
X189.049Y-119.126
X191.589Y-107.95
X191.589Y-119.126
X203.962Y-107.95
X203.962Y-119.126
X206.502Y-107.95
X206.502Y-119.126
X209.042Y-107.95
X209.042Y-119.126
T5
X84.074Y-83.312
X84.074Y-96.012
X101.564Y-83.312
X101.564Y-96.012
X119.053Y-83.312
X119.053Y-96.012
X136.543Y-83.312
X136.543Y-96.012
X154.033Y-83.312
X154.033Y-96.012
X171.523Y-83.312
X171.523Y-96.012
X189.012Y-83.312
X189.012Y-96.012
X206.502Y-83.566
X206.502Y-96.266
T0
M30
