%TF.GenerationSoftware,KiCad,Pcbnew,(5.1.9)-1*%
%TF.CreationDate,2021-04-13T13:52:40+02:00*%
%TF.ProjectId,Tasterplatine,54617374-6572-4706-9c61-74696e652e6b,rev?*%
%TF.SameCoordinates,Original*%
%TF.FileFunction,Legend,Bot*%
%TF.FilePolarity,Positive*%
%FSLAX46Y46*%
G04 Gerber Fmt 4.6, Leading zero omitted, Abs format (unit mm)*
G04 Created by KiCad (PCBNEW (5.1.9)-1) date 2021-04-13 13:52:40*
%MOMM*%
%LPD*%
G01*
G04 APERTURE LIST*
%ADD10C,0.150000*%
%ADD11C,0.010000*%
%ADD12C,0.050000*%
%ADD13C,0.120000*%
G04 APERTURE END LIST*
D10*
X210430476Y-135326380D02*
X210430476Y-134326380D01*
X209859047Y-135326380D02*
X210287619Y-134754952D01*
X209859047Y-134326380D02*
X210430476Y-134897809D01*
X209430476Y-135326380D02*
X209430476Y-134326380D01*
X209430476Y-134802571D02*
X208859047Y-134802571D01*
X208859047Y-135326380D02*
X208859047Y-134326380D01*
X208049523Y-134802571D02*
X208382857Y-134802571D01*
X208382857Y-135326380D02*
X208382857Y-134326380D01*
X207906666Y-134326380D01*
X206573333Y-134326380D02*
X206478095Y-134326380D01*
X206382857Y-134374000D01*
X206335238Y-134421619D01*
X206287619Y-134516857D01*
X206240000Y-134707333D01*
X206240000Y-134945428D01*
X206287619Y-135135904D01*
X206335238Y-135231142D01*
X206382857Y-135278761D01*
X206478095Y-135326380D01*
X206573333Y-135326380D01*
X206668571Y-135278761D01*
X206716190Y-135231142D01*
X206763809Y-135135904D01*
X206811428Y-134945428D01*
X206811428Y-134707333D01*
X206763809Y-134516857D01*
X206716190Y-134421619D01*
X206668571Y-134374000D01*
X206573333Y-134326380D01*
X205382857Y-134659714D02*
X205382857Y-135326380D01*
X205620952Y-134278761D02*
X205859047Y-134993047D01*
X205240000Y-134993047D01*
X204859047Y-135231142D02*
X204811428Y-135278761D01*
X204859047Y-135326380D01*
X204906666Y-135278761D01*
X204859047Y-135231142D01*
X204859047Y-135326380D01*
X204430476Y-134421619D02*
X204382857Y-134374000D01*
X204287619Y-134326380D01*
X204049523Y-134326380D01*
X203954285Y-134374000D01*
X203906666Y-134421619D01*
X203859047Y-134516857D01*
X203859047Y-134612095D01*
X203906666Y-134754952D01*
X204478095Y-135326380D01*
X203859047Y-135326380D01*
X203240000Y-134326380D02*
X203144761Y-134326380D01*
X203049523Y-134374000D01*
X203001904Y-134421619D01*
X202954285Y-134516857D01*
X202906666Y-134707333D01*
X202906666Y-134945428D01*
X202954285Y-135135904D01*
X203001904Y-135231142D01*
X203049523Y-135278761D01*
X203144761Y-135326380D01*
X203240000Y-135326380D01*
X203335238Y-135278761D01*
X203382857Y-135231142D01*
X203430476Y-135135904D01*
X203478095Y-134945428D01*
X203478095Y-134707333D01*
X203430476Y-134516857D01*
X203382857Y-134421619D01*
X203335238Y-134374000D01*
X203240000Y-134326380D01*
X202525714Y-134421619D02*
X202478095Y-134374000D01*
X202382857Y-134326380D01*
X202144761Y-134326380D01*
X202049523Y-134374000D01*
X202001904Y-134421619D01*
X201954285Y-134516857D01*
X201954285Y-134612095D01*
X202001904Y-134754952D01*
X202573333Y-135326380D01*
X201954285Y-135326380D01*
X201001904Y-135326380D02*
X201573333Y-135326380D01*
X201287619Y-135326380D02*
X201287619Y-134326380D01*
X201382857Y-134469238D01*
X201478095Y-134564476D01*
X201573333Y-134612095D01*
D11*
%TO.C,G\u002A\u002A\u002A*%
G36*
X155044723Y-87045226D02*
G01*
X155108542Y-87109045D01*
X155172361Y-87045226D01*
X155108542Y-86981407D01*
X155044723Y-87045226D01*
G37*
X155044723Y-87045226D02*
X155108542Y-87109045D01*
X155172361Y-87045226D01*
X155108542Y-86981407D01*
X155044723Y-87045226D01*
D12*
X146900000Y-125375000D02*
X149100000Y-126550000D01*
X149100000Y-126550000D02*
X147525000Y-127450000D01*
X154125000Y-130800000D02*
X152800000Y-131275000D01*
X151225000Y-130325000D02*
X151450000Y-130950000D01*
X151450000Y-130950000D02*
X154125000Y-130800000D01*
X145900000Y-128800000D02*
X147725000Y-129700000D01*
X144225000Y-129025000D02*
X145900000Y-128800000D01*
X142600000Y-127900000D02*
X144225000Y-129025000D01*
X154125000Y-130800000D02*
X150225000Y-126625000D01*
X154125000Y-130800000D02*
X151225000Y-130325000D01*
D13*
X144275000Y-130050000D02*
X144725000Y-130050000D01*
D12*
X145775000Y-128975000D02*
X145375000Y-129250000D01*
X146550000Y-129575000D02*
X145775000Y-128975000D01*
D13*
X145225000Y-129600000D02*
X145225000Y-132050000D01*
X148525000Y-131500000D02*
X148075000Y-131500000D01*
X149025000Y-129600000D02*
X149075000Y-132050000D01*
D12*
X150225000Y-126625000D02*
X149200000Y-126375000D01*
X137800000Y-128525000D02*
X138225000Y-128200000D01*
D13*
X148525000Y-131000000D02*
X148525000Y-131500000D01*
D12*
X137225000Y-128050000D02*
X137800000Y-128525000D01*
D13*
X143875000Y-132050000D02*
X143475000Y-132050000D01*
X145675000Y-132050000D02*
X145675000Y-131550000D01*
X144775000Y-131100000D02*
X144625000Y-131100000D01*
X145225000Y-132050000D02*
X144775000Y-132050000D01*
D12*
X146150000Y-126800000D02*
X142675000Y-125175000D01*
X141450000Y-127675000D02*
X140750000Y-128250000D01*
X146150000Y-126800000D02*
X148475000Y-127950000D01*
X142675000Y-125175000D02*
X142600000Y-127900000D01*
D13*
X138950000Y-131525000D02*
X138500000Y-131525000D01*
X143375000Y-132050000D02*
X144075000Y-131100000D01*
X144725000Y-130050000D02*
X144725000Y-130600000D01*
X138950000Y-130525000D02*
X138650000Y-130525000D01*
D12*
X139525000Y-126150000D02*
X141325000Y-126200000D01*
X150300000Y-130700000D02*
X150675000Y-130875000D01*
X149775000Y-129775000D02*
X142675000Y-125175000D01*
X141325000Y-126200000D02*
X139175000Y-127325000D01*
X151725000Y-131325000D02*
X151150000Y-130525000D01*
X140750000Y-128250000D02*
X142425000Y-128350000D01*
D13*
X138950000Y-130075000D02*
X138950000Y-130525000D01*
X148525000Y-130000000D02*
X148275000Y-130000000D01*
X144725000Y-130600000D02*
X144225000Y-130600000D01*
X146525000Y-131550000D02*
X146525000Y-131000000D01*
X145675000Y-131550000D02*
X146525000Y-131550000D01*
X149975000Y-130450000D02*
X149975000Y-131100000D01*
D12*
X145375000Y-129250000D02*
X146350000Y-129600000D01*
X150225000Y-126625000D02*
X148475000Y-127950000D01*
X150625000Y-130300000D02*
X150300000Y-130700000D01*
D13*
X148125000Y-129613605D02*
X149025000Y-129600000D01*
D12*
X151175000Y-131050000D02*
X151725000Y-131325000D01*
X138225000Y-128200000D02*
X137225000Y-128050000D01*
D13*
X138950000Y-130025000D02*
X138700000Y-130025000D01*
X148524999Y-130995050D02*
X148124999Y-130995050D01*
X138550000Y-129638605D02*
X139450000Y-129625000D01*
D12*
X148475000Y-127950000D02*
X154125000Y-130800000D01*
D13*
X140725000Y-130325000D02*
X141000000Y-131075000D01*
X140500000Y-131075000D02*
X140725000Y-130325000D01*
X146925000Y-132050000D02*
X145675000Y-132050000D01*
X144116269Y-129594594D02*
X145225000Y-129600000D01*
X138949999Y-131020050D02*
X138549999Y-131020050D01*
X138950000Y-131025000D02*
X138950000Y-131525000D01*
X139500000Y-132075000D02*
X138300000Y-132075000D01*
D12*
X152800000Y-131275000D02*
X151975000Y-130925000D01*
D13*
X149075000Y-132050000D02*
X147875000Y-132050000D01*
X150675000Y-130450000D02*
X150675000Y-131150000D01*
D12*
X143775000Y-126800000D02*
X143200000Y-128300000D01*
X142650000Y-125575000D02*
X143775000Y-126800000D01*
X142450000Y-128350000D02*
X141450000Y-127675000D01*
D13*
X139450000Y-129625000D02*
X139500000Y-132075000D01*
D12*
X146900000Y-125375000D02*
X146150000Y-126800000D01*
X149200000Y-126375000D02*
X148475000Y-127950000D01*
X139175000Y-127325000D02*
X139525000Y-126150000D01*
D13*
X144775000Y-132050000D02*
X144775000Y-131100000D01*
X143475000Y-132050000D02*
X143375000Y-132050000D01*
X144625000Y-131100000D02*
X143875000Y-132050000D01*
X141950000Y-131600000D02*
X141950000Y-132050000D01*
X140425000Y-131475000D02*
X140175000Y-132075000D01*
X141275000Y-132075000D02*
X141025000Y-131475000D01*
X146525000Y-130100000D02*
X145675000Y-130100000D01*
X148525000Y-130500000D02*
X148225000Y-130500000D01*
X141000000Y-131075000D02*
X140500000Y-131075000D01*
X145675000Y-129600000D02*
X146975000Y-129600000D01*
X140875000Y-129625000D02*
X141775000Y-132075000D01*
X146525000Y-131000000D02*
X145875000Y-131000000D01*
X145675000Y-130100000D02*
X145675000Y-129600000D01*
X141275000Y-132075000D02*
X141775000Y-132075000D01*
D12*
X148475000Y-127950000D02*
X149950000Y-129675000D01*
D13*
X142725000Y-129600000D02*
X142700000Y-131600000D01*
X143200000Y-132050000D02*
X143175000Y-129600000D01*
X145875000Y-131000000D02*
X145875000Y-130550000D01*
X140175000Y-132075000D02*
X139775000Y-132075000D01*
X140550000Y-129625000D02*
X140875000Y-129625000D01*
X145875000Y-130550000D02*
X146525000Y-130550000D01*
X148525000Y-130050000D02*
X148525000Y-130500000D01*
X146525000Y-130550000D02*
X146525000Y-130100000D01*
X139775000Y-132075000D02*
X140550000Y-129625000D01*
X147025000Y-132050000D02*
X146925000Y-132050000D01*
X146975000Y-129600000D02*
X147025000Y-132050000D01*
X149475000Y-130450000D02*
X149475000Y-131150000D01*
X151175000Y-131150000D02*
X151175000Y-130450000D01*
X143175000Y-129600000D02*
X142725000Y-129600000D01*
D11*
G36*
X159544723Y-185045226D02*
G01*
X159608542Y-185109045D01*
X159672361Y-185045226D01*
X159608542Y-184981407D01*
X159544723Y-185045226D01*
G37*
X159544723Y-185045226D02*
X159608542Y-185109045D01*
X159672361Y-185045226D01*
X159608542Y-184981407D01*
X159544723Y-185045226D01*
D13*
X141950000Y-132050000D02*
X143200000Y-132050000D01*
X142700000Y-131600000D02*
X141950000Y-131600000D01*
X141025000Y-131475000D02*
X140425000Y-131475000D01*
X144116269Y-129594594D02*
G75*
G03*
X144100001Y-131049999I233731J-730406D01*
G01*
X149475000Y-131150000D02*
G75*
G03*
X151175000Y-131150000I850000J0D01*
G01*
X138123744Y-130766064D02*
G75*
G03*
X138300001Y-132074999I426256J-608936D01*
G01*
X144225000Y-130050001D02*
G75*
G03*
X144225001Y-130599999I125000J-274999D01*
G01*
X149975000Y-131150000D02*
G75*
G03*
X150675000Y-131150000I350000J0D01*
G01*
X150675000Y-130450000D02*
G75*
G03*
X149975000Y-130450000I-350000J0D01*
G01*
X138549999Y-131020050D02*
G75*
G03*
X138500001Y-131524999I1J-254950D01*
G01*
X138710634Y-130032464D02*
G75*
G03*
X138650000Y-130525000I-60634J-242536D01*
G01*
X147698744Y-130741064D02*
G75*
G03*
X147875001Y-132049999I426256J-608936D01*
G01*
X138550000Y-129638605D02*
G75*
G03*
X138100001Y-130724999I0J-636395D01*
G01*
X148124999Y-130995050D02*
G75*
G03*
X148075001Y-131499999I1J-254950D01*
G01*
X151175000Y-130450000D02*
G75*
G03*
X149475000Y-130450000I-850000J0D01*
G01*
X148125000Y-129613605D02*
G75*
G03*
X147675001Y-130699999I0J-636395D01*
G01*
X148285634Y-130007464D02*
G75*
G03*
X148225000Y-130500000I-60634J-242536D01*
G01*
%TD*%
M02*
