<?xml version='1.0' encoding='utf-8'?>
<svg height="240.80mm" viewBox="0.0 0.0 287.10 240.80" width="287.10mm" xmlns="http://www.w3.org/2000/svg" xmlns:cc="http://creativecommons.org/ns#" xmlns:dc="http://purl.org/dc/elements/1.1/" xmlns:inkscape="http://www.inkscape.org/namespaces/inkscape" xmlns:rdf="http://www.w3.org/1999/02/22-rdf-syntax-ns#" xmlns:svg="http://www.w3.org/2000/svg" xmlns:xlink="http://www.w3.org/1999/xlink">
<!--
ClosedBox - Fully closed box


This box is more of a building block than a finished item.
Use a vector graphics program (like Inkscape) to add holes or adjust the base
plate.

See BasedBox for variant with a base.


Created with Boxes.py (https://festi.info/boxes.py)
Creation date: 2024-01-12 07:54:40
Command line (remove spaces between dashes): boxes ClosedBox - -x=120 - -y=60 - -h=60 - -outside=0 - -thickness=4.0
Url: http://festi.info/boxes.py/ClosedBox?FingerJoint_angle=90.0&FingerJoint_style=rectangular&FingerJoint_surroundingspaces=2.0&FingerJoint_bottom_lip=0.0&FingerJoint_edge_width=1.0&FingerJoint_extra_length=0.0&FingerJoint_finger=2.0&FingerJoint_play=0.0&FingerJoint_space=2.0&FingerJoint_width=1.0&x=120&y=60&h=60&outside=0&thickness=4.0&format=svg&tabs=0.0&qr_code=0&debug=0&labels=0&labels=1&reference=100&inner_corners=loop&burn=0.1&language=de&render=1
Url short: http://festi.info/boxes.py/ClosedBox?x=120&y=60&h=60&outside=0&thickness=4.0
SettingsUrl: http://festi.info/boxes.py/ClosedBox?FingerJoint_angle=90.0&FingerJoint_style=rectangular&FingerJoint_surroundingspaces=2.0&FingerJoint_bottom_lip=0.0&FingerJoint_edge_width=1.0&FingerJoint_extra_length=0.0&FingerJoint_finger=2.0&FingerJoint_play=0.0&FingerJoint_space=2.0&FingerJoint_width=1.0&x=120&y=60&h=60&outside=0&thickness=4.0&format=svg&tabs=0.0&qr_code=0&debug=0&labels=0&labels=1&reference=100&inner_corners=loop&burn=0.1&language=de
SettingsUrl short: http://festi.info/boxes.py/ClosedBox?x=120&y=60&h=60&outside=0&thickness=4.0
-->
<title>ClosedBox</title>
<metadata>
<rdf:RDF><cc:Work>
<dc:title>Box - ClosedBox</dc:title>
<dc:date>2024-01-12 07:54:40</dc:date>
<dc:source>http://festi.info/boxes.py/ClosedBox?FingerJoint_angle=90.0&amp;FingerJoint_style=rectangular&amp;FingerJoint_surroundingspaces=2.0&amp;FingerJoint_bottom_lip=0.0&amp;FingerJoint_edge_width=1.0&amp;FingerJoint_extra_length=0.0&amp;FingerJoint_finger=2.0&amp;FingerJoint_play=0.0&amp;FingerJoint_space=2.0&amp;FingerJoint_width=1.0&amp;x=120&amp;y=60&amp;h=60&amp;outside=0&amp;thickness=4.0&amp;format=svg&amp;tabs=0.0&amp;qr_code=0&amp;debug=0&amp;labels=0&amp;labels=1&amp;reference=100&amp;inner_corners=loop&amp;burn=0.1&amp;language=de&amp;render=1</dc:source>
<dc:source>http://festi.info/boxes.py/ClosedBox?x=120&amp;y=60&amp;h=60&amp;outside=0&amp;thickness=4.0</dc:source>
<dc:description>Fully closed box

This box is more of a building block than a finished item.
Use a vector graphics program (like Inkscape) to add holes or adjust the base
plate.

See BasedBox for variant with a base.

Created with Boxes.py (https://festi.info/boxes.py)
Command line: boxes ClosedBox --FingerJoint_angle=90.0 --FingerJoint_style=rectangular --FingerJoint_surroundingspaces=2.0 --FingerJoint_bottom_lip=0.0 --FingerJoint_edge_width=1.0 --FingerJoint_extra_length=0.0 --FingerJoint_finger=2.0 --FingerJoint_play=0.0 --FingerJoint_space=2.0 --FingerJoint_width=1.0 --x=120 --y=60 --h=60 --outside=0 --thickness=4.0 --format=svg --tabs=0.0 --qr_code=0 --debug=0 --labels=0 --labels=1 --reference=100 --inner_corners=loop --burn=0.1
Command line short: boxes ClosedBox --x=120 --y=60 --h=60 --outside=0 --thickness=4.0
Url: http://festi.info/boxes.py/ClosedBox?FingerJoint_angle=90.0&amp;FingerJoint_style=rectangular&amp;FingerJoint_surroundingspaces=2.0&amp;FingerJoint_bottom_lip=0.0&amp;FingerJoint_edge_width=1.0&amp;FingerJoint_extra_length=0.0&amp;FingerJoint_finger=2.0&amp;FingerJoint_play=0.0&amp;FingerJoint_space=2.0&amp;FingerJoint_width=1.0&amp;x=120&amp;y=60&amp;h=60&amp;outside=0&amp;thickness=4.0&amp;format=svg&amp;tabs=0.0&amp;qr_code=0&amp;debug=0&amp;labels=0&amp;labels=1&amp;reference=100&amp;inner_corners=loop&amp;burn=0.1&amp;language=de&amp;render=1
Url short: http://festi.info/boxes.py/ClosedBox?x=120&amp;y=60&amp;h=60&amp;outside=0&amp;thickness=4.0
SettingsUrl: http://festi.info/boxes.py/ClosedBox?FingerJoint_angle=90.0&amp;FingerJoint_style=rectangular&amp;FingerJoint_surroundingspaces=2.0&amp;FingerJoint_bottom_lip=0.0&amp;FingerJoint_edge_width=1.0&amp;FingerJoint_extra_length=0.0&amp;FingerJoint_finger=2.0&amp;FingerJoint_play=0.0&amp;FingerJoint_space=2.0&amp;FingerJoint_width=1.0&amp;x=120&amp;y=60&amp;h=60&amp;outside=0&amp;thickness=4.0&amp;format=svg&amp;tabs=0.0&amp;qr_code=0&amp;debug=0&amp;labels=0&amp;labels=1&amp;reference=100&amp;inner_corners=loop&amp;burn=0.1&amp;language=de
SettingsUrl short: http://festi.info/boxes.py/ClosedBox?x=120&amp;y=60&amp;h=60&amp;outside=0&amp;thickness=4.0
</dc:description>
</cc:Work></rdf:RDF></metadata>
<g id="p-0" style="fill:none;stroke-linecap:round;stroke-linejoin:round;">
  <path d="M 18.800 230.800 H 118.800 V 220.800 H 18.800 V 230.800 Z" stroke="rgb(0,0,0)" stroke-width="0.20" />
  <text dominant-baseline="hanging" font-size="8px" style="font-family: sans-serif ; font-weight: normal; font-style: normal; fill: rgb(255,0,0)" text-anchor="middle" transform="matrix( 1.000 0.000 0.000 1.000 68.800 221.800 )">100.00mm, burn:0.10mm</text>
</g>
<g id="p-1" style="fill:none;stroke-linecap:round;stroke-linejoin:round;">
  <text dominant-baseline="hanging" font-size="4px" style="font-family: sans-serif ; font-weight: normal; font-style: normal; fill: rgb(255,0,0)" text-anchor="middle" transform="matrix( 1.000 0.000 0.000 1.000 82.800 182.600 )">Wall 1</text><path d="M 22.800 218.600 H 30.800 C 30.855 218.600 30.900 218.555 30.900 218.500 V 214.600 C 30.900 214.500 30.800 214.600 30.900 214.600 H 38.700 C 38.800 214.600 38.700 214.500 38.700 214.600 V 218.500 C 38.700 218.555 38.745 218.600 38.800 218.600 H 46.800 C 46.855 218.600 46.900 218.555 46.900 218.500 V 214.600 C 46.900 214.500 46.800 214.600 46.900 214.600 H 54.700 C 54.800 214.600 54.700 214.500 54.700 214.600 V 218.500 C 54.700 218.555 54.745 218.600 54.800 218.600 H 62.800 C 62.855 218.600 62.900 218.555 62.900 218.500 V 214.600 C 62.900 214.500 62.800 214.600 62.900 214.600 H 70.700 C 70.800 214.600 70.700 214.500 70.700 214.600 V 218.500 C 70.700 218.555 70.745 218.600 70.800 218.600 H 78.800 C 78.855 218.600 78.900 218.555 78.900 218.500 V 214.600 C 78.900 214.500 78.800 214.600 78.900 214.600 H 86.700 C 86.800 214.600 86.700 214.500 86.700 214.600 V 218.500 C 86.700 218.555 86.745 218.600 86.800 218.600 H 94.800 C 94.855 218.600 94.900 218.555 94.900 218.500 V 214.600 C 94.900 214.500 94.800 214.600 94.900 214.600 H 102.700 C 102.800 214.600 102.700 214.500 102.700 214.600 V 218.500 C 102.700 218.555 102.745 218.600 102.800 218.600 H 110.800 C 110.855 218.600 110.900 218.555 110.900 218.500 V 214.600 C 110.900 214.500 110.800 214.600 110.900 214.600 H 118.700 C 118.800 214.600 118.700 214.500 118.700 214.600 V 218.500 C 118.700 218.555 118.745 218.600 118.800 218.600 H 126.800 C 126.855 218.600 126.900 218.555 126.900 218.500 V 214.600 C 126.900 214.500 126.800 214.600 126.900 214.600 H 134.700 C 134.800 214.600 134.700 214.500 134.700 214.600 V 218.500 C 134.700 218.555 134.745 218.600 134.800 218.600 H 142.800 H 146.800 C 146.855 218.600 146.900 218.555 146.900 218.500 V 214.500 V 204.500 C 146.900 204.445 146.855 204.400 146.800 204.400 H 142.900 C 142.800 204.400 142.900 204.500 142.900 204.400 V 196.600 C 142.900 196.500 142.800 196.600 142.900 196.600 H 146.800 C 146.855 196.600 146.900 196.555 146.900 196.500 V 188.500 C 146.900 188.445 146.855 188.400 146.800 188.400 H 142.900 C 142.800 188.400 142.900 188.500 142.900 188.400 V 180.600 C 142.900 180.500 142.800 180.600 142.900 180.600 H 146.800 C 146.855 180.600 146.900 180.555 146.900 180.500 V 172.500 C 146.900 172.445 146.855 172.400 146.800 172.400 H 142.900 C 142.800 172.400 142.900 172.500 142.900 172.400 V 164.600 C 142.900 164.500 142.800 164.600 142.900 164.600 H 146.800 C 146.855 164.600 146.900 164.555 146.900 164.500 V 154.500 V 150.500 C 146.900 150.445 146.855 150.400 146.800 150.400 H 142.800 H 134.800 C 134.745 150.400 134.700 150.445 134.700 150.500 V 154.400 C 134.700 154.500 134.800 154.400 134.700 154.400 H 126.900 C 126.800 154.400 126.900 154.500 126.900 154.400 V 150.500 C 126.900 150.445 126.855 150.400 126.800 150.400 H 118.800 C 118.745 150.400 118.700 150.445 118.700 150.500 V 154.400 C 118.700 154.500 118.800 154.400 118.700 154.400 H 110.900 C 110.800 154.400 110.900 154.500 110.900 154.400 V 150.500 C 110.900 150.445 110.855 150.400 110.800 150.400 H 102.800 C 102.745 150.400 102.700 150.445 102.700 150.500 V 154.400 C 102.700 154.500 102.800 154.400 102.700 154.400 H 94.900 C 94.800 154.400 94.900 154.500 94.900 154.400 V 150.500 C 94.900 150.445 94.855 150.400 94.800 150.400 H 86.800 C 86.745 150.400 86.700 150.445 86.700 150.500 V 154.400 C 86.700 154.500 86.800 154.400 86.700 154.400 H 78.900 C 78.800 154.400 78.900 154.500 78.900 154.400 V 150.500 C 78.900 150.445 78.855 150.400 78.800 150.400 H 70.800 C 70.745 150.400 70.700 150.445 70.700 150.500 V 154.400 C 70.700 154.500 70.800 154.400 70.700 154.400 H 62.900 C 62.800 154.400 62.900 154.500 62.900 154.400 V 150.500 C 62.900 150.445 62.855 150.400 62.800 150.400 H 54.800 C 54.745 150.400 54.700 150.445 54.700 150.500 V 154.400 C 54.700 154.500 54.800 154.400 54.700 154.400 H 46.900 C 46.800 154.400 46.900 154.500 46.900 154.400 V 150.500 C 46.900 150.445 46.855 150.400 46.800 150.400 H 38.800 C 38.745 150.400 38.700 150.445 38.700 150.500 V 154.400 C 38.700 154.500 38.800 154.400 38.700 154.400 H 30.900 C 30.800 154.400 30.900 154.500 30.900 154.400 V 150.500 C 30.900 150.445 30.855 150.400 30.800 150.400 H 22.800 H 18.800 C 18.745 150.400 18.700 150.445 18.700 150.500 V 154.500 V 164.500 C 18.700 164.555 18.745 164.600 18.800 164.600 H 22.700 C 22.800 164.600 22.700 164.500 22.700 164.600 V 172.400 C 22.700 172.500 22.800 172.400 22.700 172.400 H 18.800 C 18.745 172.400 18.700 172.445 18.700 172.500 V 180.500 C 18.700 180.555 18.745 180.600 18.800 180.600 H 22.700 C 22.800 180.600 22.700 180.500 22.700 180.600 V 188.400 C 22.700 188.500 22.800 188.400 22.700 188.400 H 18.800 C 18.745 188.400 18.700 188.445 18.700 188.500 V 196.500 C 18.700 196.555 18.745 196.600 18.800 196.600 H 22.700 C 22.800 196.600 22.700 196.500 22.700 196.600 V 204.400 C 22.700 204.500 22.800 204.400 22.700 204.400 H 18.800 C 18.745 204.400 18.700 204.445 18.700 204.500 V 214.500 V 218.500 C 18.700 218.555 18.745 218.600 18.800 218.600 H 22.800" stroke="rgb(0,0,0)" stroke-width="0.20" />
</g>
<g id="p-2" style="fill:none;stroke-linecap:round;stroke-linejoin:round;">
  <text dominant-baseline="hanging" font-size="4px" style="font-family: sans-serif ; font-weight: normal; font-style: normal; fill: rgb(255,0,0)" text-anchor="middle" transform="matrix( 1.000 0.000 0.000 1.000 183.000 182.600 )">Wall 2</text><path d="M 153.000 218.600 H 163.000 C 163.055 218.600 163.100 218.555 163.100 218.500 V 214.600 C 163.100 214.500 163.000 214.600 163.100 214.600 H 170.900 C 171.000 214.600 170.900 214.500 170.900 214.600 V 218.500 C 170.900 218.555 170.945 218.600 171.000 218.600 H 179.000 C 179.055 218.600 179.100 218.555 179.100 218.500 V 214.600 C 179.100 214.500 179.000 214.600 179.100 214.600 H 186.900 C 187.000 214.600 186.900 214.500 186.900 214.600 V 218.500 C 186.900 218.555 186.945 218.600 187.000 218.600 H 195.000 C 195.055 218.600 195.100 218.555 195.100 218.500 V 214.600 C 195.100 214.500 195.000 214.600 195.100 214.600 H 202.900 C 203.000 214.600 202.900 214.500 202.900 214.600 V 218.500 C 202.900 218.555 202.945 218.600 203.000 218.600 H 213.000 C 213.055 218.600 213.100 218.555 213.100 218.500 V 214.500 V 204.600 C 213.100 204.500 213.000 204.600 213.100 204.600 H 217.000 C 217.055 204.600 217.100 204.555 217.100 204.500 V 196.500 C 217.100 196.445 217.055 196.400 217.000 196.400 H 213.100 C 213.000 196.400 213.100 196.500 213.100 196.400 V 188.600 C 213.100 188.500 213.000 188.600 213.100 188.600 H 217.000 C 217.055 188.600 217.100 188.555 217.100 188.500 V 180.500 C 217.100 180.445 217.055 180.400 217.000 180.400 H 213.100 C 213.000 180.400 213.100 180.500 213.100 180.400 V 172.600 C 213.100 172.500 213.000 172.600 213.100 172.600 H 217.000 C 217.055 172.600 217.100 172.555 217.100 172.500 V 164.500 C 217.100 164.445 217.055 164.400 217.000 164.400 H 213.100 C 213.000 164.400 213.100 164.500 213.100 164.400 V 154.500 V 150.500 C 213.100 150.445 213.055 150.400 213.000 150.400 H 203.000 C 202.945 150.400 202.900 150.445 202.900 150.500 V 154.400 C 202.900 154.500 203.000 154.400 202.900 154.400 H 195.100 C 195.000 154.400 195.100 154.500 195.100 154.400 V 150.500 C 195.100 150.445 195.055 150.400 195.000 150.400 H 187.000 C 186.945 150.400 186.900 150.445 186.900 150.500 V 154.400 C 186.900 154.500 187.000 154.400 186.900 154.400 H 179.100 C 179.000 154.400 179.100 154.500 179.100 154.400 V 150.500 C 179.100 150.445 179.055 150.400 179.000 150.400 H 171.000 C 170.945 150.400 170.900 150.445 170.900 150.500 V 154.400 C 170.900 154.500 171.000 154.400 170.900 154.400 H 163.100 C 163.000 154.400 163.100 154.500 163.100 154.400 V 150.500 C 163.100 150.445 163.055 150.400 163.000 150.400 H 153.000 C 152.945 150.400 152.900 150.445 152.900 150.500 V 154.500 V 164.400 C 152.900 164.500 153.000 164.400 152.900 164.400 H 149.000 C 148.945 164.400 148.900 164.445 148.900 164.500 V 172.500 C 148.900 172.555 148.945 172.600 149.000 172.600 H 152.900 C 153.000 172.600 152.900 172.500 152.900 172.600 V 180.400 C 152.900 180.500 153.000 180.400 152.900 180.400 H 149.000 C 148.945 180.400 148.900 180.445 148.900 180.500 V 188.500 C 148.900 188.555 148.945 188.600 149.000 188.600 H 152.900 C 153.000 188.600 152.900 188.500 152.900 188.600 V 196.400 C 152.900 196.500 153.000 196.400 152.900 196.400 H 149.000 C 148.945 196.400 148.900 196.445 148.900 196.500 V 204.500 C 148.900 204.555 148.945 204.600 149.000 204.600 H 152.900 C 153.000 204.600 152.900 204.500 152.900 204.600 V 214.500 V 218.500 C 152.900 218.555 152.945 218.600 153.000 218.600" stroke="rgb(0,0,0)" stroke-width="0.20" />
</g>
<g id="p-3" style="fill:none;stroke-linecap:round;stroke-linejoin:round;">
  <text dominant-baseline="hanging" font-size="4px" style="font-family: sans-serif ; font-weight: normal; font-style: normal; fill: rgb(255,0,0)" text-anchor="middle" transform="matrix( 1.000 0.000 0.000 1.000 183.000 112.400 )">Wall 4</text><path d="M 153.000 148.400 H 163.000 C 163.055 148.400 163.100 148.355 163.100 148.300 V 144.400 C 163.100 144.300 163.000 144.400 163.100 144.400 H 170.900 C 171.000 144.400 170.900 144.300 170.900 144.400 V 148.300 C 170.900 148.355 170.945 148.400 171.000 148.400 H 179.000 C 179.055 148.400 179.100 148.355 179.100 148.300 V 144.400 C 179.100 144.300 179.000 144.400 179.100 144.400 H 186.900 C 187.000 144.400 186.900 144.300 186.900 144.400 V 148.300 C 186.900 148.355 186.945 148.400 187.000 148.400 H 195.000 C 195.055 148.400 195.100 148.355 195.100 148.300 V 144.400 C 195.100 144.300 195.000 144.400 195.100 144.400 H 202.900 C 203.000 144.400 202.900 144.300 202.900 144.400 V 148.300 C 202.900 148.355 202.945 148.400 203.000 148.400 H 213.000 C 213.055 148.400 213.100 148.355 213.100 148.300 V 144.300 V 134.400 C 213.100 134.300 213.000 134.400 213.100 134.400 H 217.000 C 217.055 134.400 217.100 134.355 217.100 134.300 V 126.300 C 217.100 126.245 217.055 126.200 217.000 126.200 H 213.100 C 213.000 126.200 213.100 126.300 213.100 126.200 V 118.400 C 213.100 118.300 213.000 118.400 213.100 118.400 H 217.000 C 217.055 118.400 217.100 118.355 217.100 118.300 V 110.300 C 217.100 110.245 217.055 110.200 217.000 110.200 H 213.100 C 213.000 110.200 213.100 110.300 213.100 110.200 V 102.400 C 213.100 102.300 213.000 102.400 213.100 102.400 H 217.000 C 217.055 102.400 217.100 102.355 217.100 102.300 V 94.300 C 217.100 94.245 217.055 94.200 217.000 94.200 H 213.100 C 213.000 94.200 213.100 94.300 213.100 94.200 V 84.300 V 80.300 C 213.100 80.245 213.055 80.200 213.000 80.200 H 203.000 C 202.945 80.200 202.900 80.245 202.900 80.300 V 84.200 C 202.900 84.300 203.000 84.200 202.900 84.200 H 195.100 C 195.000 84.200 195.100 84.300 195.100 84.200 V 80.300 C 195.100 80.245 195.055 80.200 195.000 80.200 H 187.000 C 186.945 80.200 186.900 80.245 186.900 80.300 V 84.200 C 186.900 84.300 187.000 84.200 186.900 84.200 H 179.100 C 179.000 84.200 179.100 84.300 179.100 84.200 V 80.300 C 179.100 80.245 179.055 80.200 179.000 80.200 H 171.000 C 170.945 80.200 170.900 80.245 170.900 80.300 V 84.200 C 170.900 84.300 171.000 84.200 170.900 84.200 H 163.100 C 163.000 84.200 163.100 84.300 163.100 84.200 V 80.300 C 163.100 80.245 163.055 80.200 163.000 80.200 H 153.000 C 152.945 80.200 152.900 80.245 152.900 80.300 V 84.300 V 94.200 C 152.900 94.300 153.000 94.200 152.900 94.200 H 149.000 C 148.945 94.200 148.900 94.245 148.900 94.300 V 102.300 C 148.900 102.355 148.945 102.400 149.000 102.400 H 152.900 C 153.000 102.400 152.900 102.300 152.900 102.400 V 110.200 C 152.900 110.300 153.000 110.200 152.900 110.200 H 149.000 C 148.945 110.200 148.900 110.245 148.900 110.300 V 118.300 C 148.900 118.355 148.945 118.400 149.000 118.400 H 152.900 C 153.000 118.400 152.900 118.300 152.900 118.400 V 126.200 C 152.900 126.300 153.000 126.200 152.900 126.200 H 149.000 C 148.945 126.200 148.900 126.245 148.900 126.300 V 134.300 C 148.900 134.355 148.945 134.400 149.000 134.400 H 152.900 C 153.000 134.400 152.900 134.300 152.900 134.400 V 144.300 V 148.300 C 152.900 148.355 152.945 148.400 153.000 148.400" stroke="rgb(0,0,0)" stroke-width="0.20" />
</g>
<g id="p-4" style="fill:none;stroke-linecap:round;stroke-linejoin:round;">
  <text dominant-baseline="hanging" font-size="4px" style="font-family: sans-serif ; font-weight: normal; font-style: normal; fill: rgb(255,0,0)" text-anchor="middle" transform="matrix( 1.000 0.000 0.000 1.000 82.800 112.400 )">Wall 3</text><path d="M 22.800 148.400 H 30.800 C 30.855 148.400 30.900 148.355 30.900 148.300 V 144.400 C 30.900 144.300 30.800 144.400 30.900 144.400 H 38.700 C 38.800 144.400 38.700 144.300 38.700 144.400 V 148.300 C 38.700 148.355 38.745 148.400 38.800 148.400 H 46.800 C 46.855 148.400 46.900 148.355 46.900 148.300 V 144.400 C 46.900 144.300 46.800 144.400 46.900 144.400 H 54.700 C 54.800 144.400 54.700 144.300 54.700 144.400 V 148.300 C 54.700 148.355 54.745 148.400 54.800 148.400 H 62.800 C 62.855 148.400 62.900 148.355 62.900 148.300 V 144.400 C 62.900 144.300 62.800 144.400 62.900 144.400 H 70.700 C 70.800 144.400 70.700 144.300 70.700 144.400 V 148.300 C 70.700 148.355 70.745 148.400 70.800 148.400 H 78.800 C 78.855 148.400 78.900 148.355 78.900 148.300 V 144.400 C 78.900 144.300 78.800 144.400 78.900 144.400 H 86.700 C 86.800 144.400 86.700 144.300 86.700 144.400 V 148.300 C 86.700 148.355 86.745 148.400 86.800 148.400 H 94.800 C 94.855 148.400 94.900 148.355 94.900 148.300 V 144.400 C 94.900 144.300 94.800 144.400 94.900 144.400 H 102.700 C 102.800 144.400 102.700 144.300 102.700 144.400 V 148.300 C 102.700 148.355 102.745 148.400 102.800 148.400 H 110.800 C 110.855 148.400 110.900 148.355 110.900 148.300 V 144.400 C 110.900 144.300 110.800 144.400 110.900 144.400 H 118.700 C 118.800 144.400 118.700 144.300 118.700 144.400 V 148.300 C 118.700 148.355 118.745 148.400 118.800 148.400 H 126.800 C 126.855 148.400 126.900 148.355 126.900 148.300 V 144.400 C 126.900 144.300 126.800 144.400 126.900 144.400 H 134.700 C 134.800 144.400 134.700 144.300 134.700 144.400 V 148.300 C 134.700 148.355 134.745 148.400 134.800 148.400 H 142.800 H 146.800 C 146.855 148.400 146.900 148.355 146.900 148.300 V 144.300 V 134.300 C 146.900 134.245 146.855 134.200 146.800 134.200 H 142.900 C 142.800 134.200 142.900 134.300 142.900 134.200 V 126.400 C 142.900 126.300 142.800 126.400 142.900 126.400 H 146.800 C 146.855 126.400 146.900 126.355 146.900 126.300 V 118.300 C 146.900 118.245 146.855 118.200 146.800 118.200 H 142.900 C 142.800 118.200 142.900 118.300 142.900 118.200 V 110.400 C 142.900 110.300 142.800 110.400 142.900 110.400 H 146.800 C 146.855 110.400 146.900 110.355 146.900 110.300 V 102.300 C 146.900 102.245 146.855 102.200 146.800 102.200 H 142.900 C 142.800 102.200 142.900 102.300 142.900 102.200 V 94.400 C 142.900 94.300 142.800 94.400 142.900 94.400 H 146.800 C 146.855 94.400 146.900 94.355 146.900 94.300 V 84.300 V 80.300 C 146.900 80.245 146.855 80.200 146.800 80.200 H 142.800 H 134.800 C 134.745 80.200 134.700 80.245 134.700 80.300 V 84.200 C 134.700 84.300 134.800 84.200 134.700 84.200 H 126.900 C 126.800 84.200 126.900 84.300 126.900 84.200 V 80.300 C 126.900 80.245 126.855 80.200 126.800 80.200 H 118.800 C 118.745 80.200 118.700 80.245 118.700 80.300 V 84.200 C 118.700 84.300 118.800 84.200 118.700 84.200 H 110.900 C 110.800 84.200 110.900 84.300 110.900 84.200 V 80.300 C 110.900 80.245 110.855 80.200 110.800 80.200 H 102.800 C 102.745 80.200 102.700 80.245 102.700 80.300 V 84.200 C 102.700 84.300 102.800 84.200 102.700 84.200 H 94.900 C 94.800 84.200 94.900 84.300 94.900 84.200 V 80.300 C 94.900 80.245 94.855 80.200 94.800 80.200 H 86.800 C 86.745 80.200 86.700 80.245 86.700 80.300 V 84.200 C 86.700 84.300 86.800 84.200 86.700 84.200 H 78.900 C 78.800 84.200 78.900 84.300 78.900 84.200 V 80.300 C 78.900 80.245 78.855 80.200 78.800 80.200 H 70.800 C 70.745 80.200 70.700 80.245 70.700 80.300 V 84.200 C 70.700 84.300 70.800 84.200 70.700 84.200 H 62.900 C 62.800 84.200 62.900 84.300 62.900 84.200 V 80.300 C 62.900 80.245 62.855 80.200 62.800 80.200 H 54.800 C 54.745 80.200 54.700 80.245 54.700 80.300 V 84.200 C 54.700 84.300 54.800 84.200 54.700 84.200 H 46.900 C 46.800 84.200 46.900 84.300 46.900 84.200 V 80.300 C 46.900 80.245 46.855 80.200 46.800 80.200 H 38.800 C 38.745 80.200 38.700 80.245 38.700 80.300 V 84.200 C 38.700 84.300 38.800 84.200 38.700 84.200 H 30.900 C 30.800 84.200 30.900 84.300 30.900 84.200 V 80.300 C 30.900 80.245 30.855 80.200 30.800 80.200 H 22.800 H 18.800 C 18.745 80.200 18.700 80.245 18.700 80.300 V 84.300 V 94.300 C 18.700 94.355 18.745 94.400 18.800 94.400 H 22.700 C 22.800 94.400 22.700 94.300 22.700 94.400 V 102.200 C 22.700 102.300 22.800 102.200 22.700 102.200 H 18.800 C 18.745 102.200 18.700 102.245 18.700 102.300 V 110.300 C 18.700 110.355 18.745 110.400 18.800 110.400 H 22.700 C 22.800 110.400 22.700 110.300 22.700 110.400 V 118.200 C 22.700 118.300 22.800 118.200 22.700 118.200 H 18.800 C 18.745 118.200 18.700 118.245 18.700 118.300 V 126.300 C 18.700 126.355 18.745 126.400 18.800 126.400 H 22.700 C 22.800 126.400 22.700 126.300 22.700 126.400 V 134.200 C 22.700 134.300 22.800 134.200 22.700 134.200 H 18.800 C 18.745 134.200 18.700 134.245 18.700 134.300 V 144.300 V 148.300 C 18.700 148.355 18.745 148.400 18.800 148.400 H 22.800" stroke="rgb(0,0,0)" stroke-width="0.20" />
</g>
<g id="p-5" style="fill:none;stroke-linecap:round;stroke-linejoin:round;">
  <text dominant-baseline="hanging" font-size="4px" style="font-family: sans-serif ; font-weight: normal; font-style: normal; fill: rgb(255,0,0)" text-anchor="middle" transform="matrix( 1.000 0.000 0.000 1.000 82.800 42.200 )">Top</text><path d="M 22.800 74.200 H 30.700 C 30.800 74.200 30.700 74.100 30.700 74.200 V 78.100 C 30.700 78.155 30.745 78.200 30.800 78.200 H 38.800 C 38.855 78.200 38.900 78.155 38.900 78.100 V 74.200 C 38.900 74.100 38.800 74.200 38.900 74.200 H 46.700 C 46.800 74.200 46.700 74.100 46.700 74.200 V 78.100 C 46.700 78.155 46.745 78.200 46.800 78.200 H 54.800 C 54.855 78.200 54.900 78.155 54.900 78.100 V 74.200 C 54.900 74.100 54.800 74.200 54.900 74.200 H 62.700 C 62.800 74.200 62.700 74.100 62.700 74.200 V 78.100 C 62.700 78.155 62.745 78.200 62.800 78.200 H 70.800 C 70.855 78.200 70.900 78.155 70.900 78.100 V 74.200 C 70.900 74.100 70.800 74.200 70.900 74.200 H 78.700 C 78.800 74.200 78.700 74.100 78.700 74.200 V 78.100 C 78.700 78.155 78.745 78.200 78.800 78.200 H 86.800 C 86.855 78.200 86.900 78.155 86.900 78.100 V 74.200 C 86.900 74.100 86.800 74.200 86.900 74.200 H 94.700 C 94.800 74.200 94.700 74.100 94.700 74.200 V 78.100 C 94.700 78.155 94.745 78.200 94.800 78.200 H 102.800 C 102.855 78.200 102.900 78.155 102.900 78.100 V 74.200 C 102.900 74.100 102.800 74.200 102.900 74.200 H 110.700 C 110.800 74.200 110.700 74.100 110.700 74.200 V 78.100 C 110.700 78.155 110.745 78.200 110.800 78.200 H 118.800 C 118.855 78.200 118.900 78.155 118.900 78.100 V 74.200 C 118.900 74.100 118.800 74.200 118.900 74.200 H 126.700 C 126.800 74.200 126.700 74.100 126.700 74.200 V 78.100 C 126.700 78.155 126.745 78.200 126.800 78.200 H 134.800 C 134.855 78.200 134.900 78.155 134.900 78.100 V 74.200 C 134.900 74.100 134.800 74.200 134.900 74.200 H 142.800 C 142.855 74.200 142.900 74.155 142.900 74.100 V 64.200 C 142.900 64.100 142.800 64.200 142.900 64.200 H 146.800 C 146.855 64.200 146.900 64.155 146.900 64.100 V 56.100 C 146.900 56.045 146.855 56.000 146.800 56.000 H 142.900 C 142.800 56.000 142.900 56.100 142.900 56.000 V 48.200 C 142.900 48.100 142.800 48.200 142.900 48.200 H 146.800 C 146.855 48.200 146.900 48.155 146.900 48.100 V 40.100 C 146.900 40.045 146.855 40.000 146.800 40.000 H 142.900 C 142.800 40.000 142.900 40.100 142.900 40.000 V 32.200 C 142.900 32.100 142.800 32.200 142.900 32.200 H 146.800 C 146.855 32.200 146.900 32.155 146.900 32.100 V 24.100 C 146.900 24.045 146.855 24.000 146.800 24.000 H 142.900 C 142.800 24.000 142.900 24.100 142.900 24.000 V 14.100 C 142.900 14.045 142.855 14.000 142.800 14.000 H 134.900 C 134.800 14.000 134.900 14.100 134.900 14.000 V 10.100 C 134.900 10.045 134.855 10.000 134.800 10.000 H 126.800 C 126.745 10.000 126.700 10.045 126.700 10.100 V 14.000 C 126.700 14.100 126.800 14.000 126.700 14.000 H 118.900 C 118.800 14.000 118.900 14.100 118.900 14.000 V 10.100 C 118.900 10.045 118.855 10.000 118.800 10.000 H 110.800 C 110.745 10.000 110.700 10.045 110.700 10.100 V 14.000 C 110.700 14.100 110.800 14.000 110.700 14.000 H 102.900 C 102.800 14.000 102.900 14.100 102.900 14.000 V 10.100 C 102.900 10.045 102.855 10.000 102.800 10.000 H 94.800 C 94.745 10.000 94.700 10.045 94.700 10.100 V 14.000 C 94.700 14.100 94.800 14.000 94.700 14.000 H 86.900 C 86.800 14.000 86.900 14.100 86.900 14.000 V 10.100 C 86.900 10.045 86.855 10.000 86.800 10.000 H 78.800 C 78.745 10.000 78.700 10.045 78.700 10.100 V 14.000 C 78.700 14.100 78.800 14.000 78.700 14.000 H 70.900 C 70.800 14.000 70.900 14.100 70.900 14.000 V 10.100 C 70.900 10.045 70.855 10.000 70.800 10.000 H 62.800 C 62.745 10.000 62.700 10.045 62.700 10.100 V 14.000 C 62.700 14.100 62.800 14.000 62.700 14.000 H 54.900 C 54.800 14.000 54.900 14.100 54.900 14.000 V 10.100 C 54.900 10.045 54.855 10.000 54.800 10.000 H 46.800 C 46.745 10.000 46.700 10.045 46.700 10.100 V 14.000 C 46.700 14.100 46.800 14.000 46.700 14.000 H 38.900 C 38.800 14.000 38.900 14.100 38.900 14.000 V 10.100 C 38.900 10.045 38.855 10.000 38.800 10.000 H 30.800 C 30.745 10.000 30.700 10.045 30.700 10.100 V 14.000 C 30.700 14.100 30.800 14.000 30.700 14.000 H 22.800 C 22.745 14.000 22.700 14.045 22.700 14.100 V 24.000 C 22.700 24.100 22.800 24.000 22.700 24.000 H 18.800 C 18.745 24.000 18.700 24.045 18.700 24.100 V 32.100 C 18.700 32.155 18.745 32.200 18.800 32.200 H 22.700 C 22.800 32.200 22.700 32.100 22.700 32.200 V 40.000 C 22.700 40.100 22.800 40.000 22.700 40.000 H 18.800 C 18.745 40.000 18.700 40.045 18.700 40.100 V 48.100 C 18.700 48.155 18.745 48.200 18.800 48.200 H 22.700 C 22.800 48.200 22.700 48.100 22.700 48.200 V 56.000 C 22.700 56.100 22.800 56.000 22.700 56.000 H 18.800 C 18.745 56.000 18.700 56.045 18.700 56.100 V 64.100 C 18.700 64.155 18.745 64.200 18.800 64.200 H 22.700 C 22.800 64.200 22.700 64.100 22.700 64.200 V 74.100 C 22.700 74.155 22.745 74.200 22.800 74.200" stroke="rgb(0,0,0)" stroke-width="0.20" />
</g>
<g id="p-6" style="fill:none;stroke-linecap:round;stroke-linejoin:round;">
  <text dominant-baseline="hanging" font-size="4px" style="font-family: sans-serif ; font-weight: normal; font-style: normal; fill: rgb(255,0,0)" text-anchor="middle" transform="matrix( 1.000 0.000 0.000 1.000 213.000 42.200 )">Bottom</text><path d="M 153.000 74.200 H 160.900 C 161.000 74.200 160.900 74.100 160.900 74.200 V 78.100 C 160.900 78.155 160.945 78.200 161.000 78.200 H 169.000 C 169.055 78.200 169.100 78.155 169.100 78.100 V 74.200 C 169.100 74.100 169.000 74.200 169.100 74.200 H 176.900 C 177.000 74.200 176.900 74.100 176.900 74.200 V 78.100 C 176.900 78.155 176.945 78.200 177.000 78.200 H 185.000 C 185.055 78.200 185.100 78.155 185.100 78.100 V 74.200 C 185.100 74.100 185.000 74.200 185.100 74.200 H 192.900 C 193.000 74.200 192.900 74.100 192.900 74.200 V 78.100 C 192.900 78.155 192.945 78.200 193.000 78.200 H 201.000 C 201.055 78.200 201.100 78.155 201.100 78.100 V 74.200 C 201.100 74.100 201.000 74.200 201.100 74.200 H 208.900 C 209.000 74.200 208.900 74.100 208.900 74.200 V 78.100 C 208.900 78.155 208.945 78.200 209.000 78.200 H 217.000 C 217.055 78.200 217.100 78.155 217.100 78.100 V 74.200 C 217.100 74.100 217.000 74.200 217.100 74.200 H 224.900 C 225.000 74.200 224.900 74.100 224.900 74.200 V 78.100 C 224.900 78.155 224.945 78.200 225.000 78.200 H 233.000 C 233.055 78.200 233.100 78.155 233.100 78.100 V 74.200 C 233.100 74.100 233.000 74.200 233.100 74.200 H 240.900 C 241.000 74.200 240.900 74.100 240.900 74.200 V 78.100 C 240.900 78.155 240.945 78.200 241.000 78.200 H 249.000 C 249.055 78.200 249.100 78.155 249.100 78.100 V 74.200 C 249.100 74.100 249.000 74.200 249.100 74.200 H 256.900 C 257.000 74.200 256.900 74.100 256.900 74.200 V 78.100 C 256.900 78.155 256.945 78.200 257.000 78.200 H 265.000 C 265.055 78.200 265.100 78.155 265.100 78.100 V 74.200 C 265.100 74.100 265.000 74.200 265.100 74.200 H 273.000 C 273.055 74.200 273.100 74.155 273.100 74.100 V 64.200 C 273.100 64.100 273.000 64.200 273.100 64.200 H 277.000 C 277.055 64.200 277.100 64.155 277.100 64.100 V 56.100 C 277.100 56.045 277.055 56.000 277.000 56.000 H 273.100 C 273.000 56.000 273.100 56.100 273.100 56.000 V 48.200 C 273.100 48.100 273.000 48.200 273.100 48.200 H 277.000 C 277.055 48.200 277.100 48.155 277.100 48.100 V 40.100 C 277.100 40.045 277.055 40.000 277.000 40.000 H 273.100 C 273.000 40.000 273.100 40.100 273.100 40.000 V 32.200 C 273.100 32.100 273.000 32.200 273.100 32.200 H 277.000 C 277.055 32.200 277.100 32.155 277.100 32.100 V 24.100 C 277.100 24.045 277.055 24.000 277.000 24.000 H 273.100 C 273.000 24.000 273.100 24.100 273.100 24.000 V 14.100 C 273.100 14.045 273.055 14.000 273.000 14.000 H 265.100 C 265.000 14.000 265.100 14.100 265.100 14.000 V 10.100 C 265.100 10.045 265.055 10.000 265.000 10.000 H 257.000 C 256.945 10.000 256.900 10.045 256.900 10.100 V 14.000 C 256.900 14.100 257.000 14.000 256.900 14.000 H 249.100 C 249.000 14.000 249.100 14.100 249.100 14.000 V 10.100 C 249.100 10.045 249.055 10.000 249.000 10.000 H 241.000 C 240.945 10.000 240.900 10.045 240.900 10.100 V 14.000 C 240.900 14.100 241.000 14.000 240.900 14.000 H 233.100 C 233.000 14.000 233.100 14.100 233.100 14.000 V 10.100 C 233.100 10.045 233.055 10.000 233.000 10.000 H 225.000 C 224.945 10.000 224.900 10.045 224.900 10.100 V 14.000 C 224.900 14.100 225.000 14.000 224.900 14.000 H 217.100 C 217.000 14.000 217.100 14.100 217.100 14.000 V 10.100 C 217.100 10.045 217.055 10.000 217.000 10.000 H 209.000 C 208.945 10.000 208.900 10.045 208.900 10.100 V 14.000 C 208.900 14.100 209.000 14.000 208.900 14.000 H 201.100 C 201.000 14.000 201.100 14.100 201.100 14.000 V 10.100 C 201.100 10.045 201.055 10.000 201.000 10.000 H 193.000 C 192.945 10.000 192.900 10.045 192.900 10.100 V 14.000 C 192.900 14.100 193.000 14.000 192.900 14.000 H 185.100 C 185.000 14.000 185.100 14.100 185.100 14.000 V 10.100 C 185.100 10.045 185.055 10.000 185.000 10.000 H 177.000 C 176.945 10.000 176.900 10.045 176.900 10.100 V 14.000 C 176.900 14.100 177.000 14.000 176.900 14.000 H 169.100 C 169.000 14.000 169.100 14.100 169.100 14.000 V 10.100 C 169.100 10.045 169.055 10.000 169.000 10.000 H 161.000 C 160.945 10.000 160.900 10.045 160.900 10.100 V 14.000 C 160.900 14.100 161.000 14.000 160.900 14.000 H 153.000 C 152.945 14.000 152.900 14.045 152.900 14.100 V 24.000 C 152.900 24.100 153.000 24.000 152.900 24.000 H 149.000 C 148.945 24.000 148.900 24.045 148.900 24.100 V 32.100 C 148.900 32.155 148.945 32.200 149.000 32.200 H 152.900 C 153.000 32.200 152.900 32.100 152.900 32.200 V 40.000 C 152.900 40.100 153.000 40.000 152.900 40.000 H 149.000 C 148.945 40.000 148.900 40.045 148.900 40.100 V 48.100 C 148.900 48.155 148.945 48.200 149.000 48.200 H 152.900 C 153.000 48.200 152.900 48.100 152.900 48.200 V 56.000 C 152.900 56.100 153.000 56.000 152.900 56.000 H 149.000 C 148.945 56.000 148.900 56.045 148.900 56.100 V 64.100 C 148.900 64.155 148.945 64.200 149.000 64.200 H 152.900 C 153.000 64.200 152.900 64.100 152.900 64.200 V 74.100 C 152.900 74.155 152.945 74.200 153.000 74.200" stroke="rgb(0,0,0)" stroke-width="0.20" />
</g>
</svg>